<?xml version="1.0" standalone="no"?>
<!DOCTYPE svg PUBLIC "-//W3C//DTD SVG 1.1//EN" "http://www.w3.org/Graphics/SVG/1.1/DTD/svg11.dtd" >
<svg xmlns="http://www.w3.org/2000/svg">
<metadata>Generated by IcoMoon</metadata>
<defs>
<font id="icomoon" horiz-adv-x="1024">
<font-face units-per-em="1024" ascent="960" descent="-64" />
<missing-glyph horiz-adv-x="1024" />
<glyph unicode="&#x20;" horiz-adv-x="512" d="" />
<glyph unicode="&#xe900;" d="M35.070 219.247l145.587 321.822c5.929 13.109 24.479 13.29 30.664 0.302l153.392-322.124c13.633-43.514 0.247-62.955-31.034-75.037-1.826-0.704-3.776-1.035-5.733-1.035h-256.258c-1.859 0-3.717 0.3-5.463 0.937-32.83 11.982-44.819 31.511-31.154 75.135z" />
<glyph unicode="&#xe901;" d="M657.83 485.767l145.588 321.822c5.929 13.108 24.479 13.29 30.664 0.302l153.392-322.124c13.633-43.514 0.247-62.955-31.034-75.037-1.826-0.704-3.776-1.035-5.733-1.035h-256.258c-1.86 0-3.717 0.3-5.464 0.937-32.83 11.982-44.819 31.511-31.155 75.135z" />
<glyph unicode="&#xe902;" d="M1010.089 349.932c-3.637 5.925-9.959 9.464-16.913 9.464h-3.522l-142.556 314.065h33.374c22.369 0 40.569 18.199 40.569 40.569s-18.199 40.569-40.569 40.569h-324.572v53.418c21.236 14.211 35.251 38.407 35.251 65.822 0 43.642-35.508 79.149-79.148 79.149-43.642 0-79.15-35.507-79.15-79.149 0-27.415 14.013-51.611 35.251-65.822v-53.416h-324.573c-22.371 0-40.568-18.199-40.568-40.569 0-22.368 18.199-40.567 40.568-40.567h33.374l-142.556-314.066h-3.523c-6.953 0-13.276-3.539-16.913-9.464s-3.929-13.168-0.779-19.37l25.766-50.713c9.975-19.638 29.857-31.838 51.885-31.838h227.959c22.029 0 41.908 12.198 51.886 31.838l25.764 50.709c3.152 6.2 2.862 13.44-0.774 19.369s-9.961 9.468-16.917 9.468h-3.521l-142.555 314.065h235.475v-553.629h-107.047c-26.279 0-47.658-21.379-47.658-47.658v-25.906h-23.705c-26.279 0-47.658-21.379-47.658-47.657v-40.752c0-8.198 6.646-14.845 14.845-14.845h510.242c8.2 0 14.847 6.646 14.847 14.845v40.752c0 26.278-21.379 47.657-47.658 47.657h-23.705v25.906c0 26.279-21.379 47.658-47.658 47.658h-107.047v428.708c0 8.199-6.645 14.847-14.845 14.847s-14.847-6.646-14.847-14.847v-428.707h-28.418v568.474c0 8.198-6.646 14.845-14.847 14.845h-339.413c-5.999 0-10.879 4.88-10.879 10.878 0 6 4.88 10.88 10.879 10.88h339.416c8.199 0 14.845 6.646 14.845 14.845v56.198c0.554-0.101 1.115-0.175 1.673-0.265 0.283-0.045 0.565-0.093 0.847-0.133 0.952-0.14 1.912-0.261 2.873-0.368 0.355-0.039 0.71-0.084 1.066-0.118 0.905-0.087 1.811-0.15 2.719-0.208 0.398-0.025 0.795-0.060 1.195-0.079 1.131-0.053 2.263-0.079 3.396-0.087 0.147 0 0.292-0.011 0.439-0.011 0.149 0 0.295 0.010 0.44 0.011 1.132 0.006 2.264 0.032 3.395 0.087 0.4 0.020 0.797 0.055 1.195 0.079 0.908 0.058 1.815 0.121 2.719 0.208 0.358 0.035 0.713 0.079 1.069 0.118 0.961 0.107 1.918 0.226 2.87 0.365 0.285 0.042 0.567 0.090 0.849 0.135 0.555 0.088 1.118 0.164 1.672 0.264v-56.197c0-8.198 6.646-14.847 14.847-14.847h339.415c5.998 0 10.878-4.88 10.878-10.878s-4.88-10.878-10.878-10.878h-339.414c-8.2 0-14.845-6.646-14.845-14.847v-69.392c0-8.198 6.645-14.845 14.845-14.845s14.847 6.645 14.847 14.845v54.548h235.475l-142.556-314.064h-3.521c-6.956 0-13.28-3.541-16.917-9.468-3.636-5.929-3.926-13.17-0.776-19.366l25.767-50.713c9.975-19.638 29.857-31.838 51.885-31.838h227.959c22.029 0 41.908 12.198 51.886 31.838l25.768 50.715c3.148 6.2 2.856 13.441-0.784 19.368zM662.95 90.141c9.906 0 17.966-8.060 17.966-17.966v-25.906h-227.15c-8.199 0-14.845-6.646-14.845-14.845s6.646-14.847 14.845-14.847h280.544c9.906 0 17.966-8.060 17.966-17.966v-25.906h-480.551v25.906c0 9.906 8.060 17.966 17.966 17.966h95.176c8.2 0 14.845 6.646 14.845 14.847 0 8.198-6.645 14.845-14.845 14.845h-41.782v25.906c0 9.909 8.060 17.966 17.966 17.966h301.898zM344.159 293.296c-4.886-9.619-14.625-15.593-25.415-15.593h-227.957c-10.79 0-20.529 5.974-25.415 15.593l-18.499 36.41h315.785l-18.499-36.41zM342.755 359.397h-275.978l137.989 304.006 137.989-304.006zM533.94 829.525c-0.541-0.268-1.087-0.523-1.634-0.771-0.278-0.126-0.554-0.258-0.836-0.379-0.62-0.266-1.244-0.513-1.873-0.754-0.481-0.183-0.968-0.359-1.457-0.529-0.515-0.18-1.031-0.359-1.553-0.521-0.473-0.146-0.954-0.276-1.434-0.408-0.363-0.101-0.725-0.203-1.093-0.296-0.495-0.124-0.996-0.237-1.497-0.347-0.368-0.079-0.734-0.158-1.101-0.229-0.491-0.095-0.982-0.183-1.48-0.264-0.408-0.067-0.818-0.124-1.229-0.18-0.457-0.063-0.915-0.126-1.376-0.176-0.512-0.055-1.028-0.095-1.543-0.134-0.37-0.030-0.739-0.065-1.111-0.085-0.903-0.049-1.808-0.079-2.72-0.079s-1.819 0.030-2.72 0.079c-0.373 0.020-0.742 0.055-1.111 0.085-0.515 0.039-1.030 0.079-1.543 0.134-0.462 0.049-0.919 0.112-1.376 0.176-0.411 0.055-0.821 0.114-1.229 0.18-0.495 0.081-0.989 0.17-1.48 0.264-0.369 0.071-0.735 0.15-1.101 0.229-0.501 0.109-1.002 0.221-1.497 0.347-0.365 0.093-0.728 0.195-1.093 0.296-0.48 0.132-0.961 0.262-1.434 0.408-0.522 0.162-1.037 0.341-1.553 0.521-0.49 0.17-0.976 0.343-1.457 0.529-0.627 0.241-1.253 0.487-1.873 0.754-0.282 0.12-0.558 0.252-0.836 0.379-0.547 0.249-1.093 0.501-1.633 0.771-16.294 8.099-27.522 24.916-27.522 44.312 0 27.271 22.186 49.459 49.458 49.459s49.459-22.188 49.459-49.459c-0.003-19.397-11.229-36.213-27.525-44.312zM819.238 663.403l137.99-304.006h-275.981l137.99 304.006zM958.632 293.296c-4.886-9.619-14.625-15.593-25.415-15.593h-227.959c-10.791 0-20.529 5.974-25.415 15.593l-18.499 36.41h315.785l-18.497-36.41z" />
<glyph unicode="&#xe903;" d="M259.51 340.286v425.834c0 6.426 3.643 12.295 9.4 15.148l339.111 168.025c4.698 2.327 10.209 2.344 14.92 0.045l356.505-173.976c5.806-2.834 9.49-8.731 9.49-15.192v-413.934c0-6.462-3.684-12.358-9.49-15.193l-356.505-173.975c-4.71-2.299-10.222-2.282-14.92 0.045l-339.111 168.026c-5.757 2.852-9.4 8.722-9.4 15.147z" />
<glyph unicode="&#xe904;" d="M977.001 730.139l-458.567 221.377c-4.065 1.961-8.799 1.961-12.863 0l-458.569-221.377c-5.113-2.467-8.362-7.646-8.362-13.323v-537.631c0-5.677 3.249-10.856 8.362-13.323l458.568-221.378c2.031-0.979 4.232-1.471 6.432-1.471s4.399 0.492 6.433 1.471l458.567 221.378c5.113 2.467 8.362 7.646 8.362 13.323v537.629c0 5.681-3.25 10.854-8.362 13.325zM512.001 921.763l424.538-204.948-123.064-59.41c-0.78 0.593-1.602 1.142-2.505 1.578l-421.654 203.552 122.685 59.227zM355.905 845.808l423.919-204.649-86.824-41.917-423.744 204.567 86.649 41.999zM789.742 613.093v-154.941l-81.099-39.152v154.94l81.099 39.153zM955.775 188.468l-428.979-207.088v504.773l102.326 49.397c7.357 3.553 10.442 12.396 6.89 19.756-3.553 7.356-12.396 10.445-19.756 6.89l-104.254-50.332-41.022 19.805c-7.36 3.557-16.203 0.467-19.756-6.89-3.552-7.357-0.467-16.203 6.89-19.755l39.093-18.872v-504.773l-428.977 207.092v504.773l326.663-157.7c2.073-1.002 4.264-1.476 6.42-1.476 5.5 0 10.783 3.082 13.333 8.366 3.553 7.357 0.469 16.203-6.89 19.756l-320.291 154.624 146.969 70.951 444.416-214.546c0.065-0.091 0.137-0.171 0.205-0.261v-177.532c0-5.091 2.618-9.823 6.93-12.532 2.394-1.502 5.127-2.263 7.867-2.263 2.194 0 4.393 0.488 6.432 1.473l110.689 53.435c5.113 2.469 8.362 7.645 8.362 13.323v178.511l136.443 65.868v-504.774z" />
<glyph unicode="&#xe905;" d="M190.324 245.848l-67.295 32.486c-7.362 3.557-16.203 0.469-19.756-6.89-3.553-7.357-0.468-16.203 6.89-19.755l67.296-32.487c2.073-1.002 4.264-1.476 6.42-1.476 5.5 0 10.781 3.082 13.333 8.366 3.555 7.36 0.469 16.202-6.889 19.756z" />
<glyph unicode="&#xe906;" d="M252.256 286.162l-129.136 62.343c-7.36 3.552-16.203 0.467-19.756-6.893-3.551-7.357-0.465-16.203 6.892-19.755l129.136-62.343c2.073-1 4.264-1.474 6.42-1.474 5.5 0 10.783 3.080 13.333 8.365 3.553 7.363 0.467 16.207-6.89 19.758z" />
<glyph unicode="&#xe907;" glyph-name="calendar" d="M1022.426 49.341c-3.904 27.597-102.38 662.881-113.006 741.321-5.312 39.542-39.276 69.788-79.878 69.788h-96.988v46.208c0 21.536-17.522 39.058-39.058 39.058h-8.011c-21.538 0-39.058-17.522-39.058-39.058v-46.206h-162.244v46.206c0 21.536-17.522 39.058-39.057 39.058h-8.013c-21.538 0-39.057-17.522-39.057-39.058v-46.206h-162.244v46.206c0 21.536-17.522 39.058-39.058 39.058h-8.011c-21.538 0-39.058-17.522-39.058-39.058v-46.206h-69.058c-44.456 0-80.624-36.168-80.624-80.623 0-22.891 0-737.556 0-748.915 0-44.456 36.168-80.624 80.624-80.624 13.34 0 848.192 0 863.83 0 33.599 0 63.996 21.168 75.6 52.567 1.58 4.18 6.414 19.86 2.372 46.485zM676.471 906.657c0 4.97 4.042 9.014 9.014 9.014h8.013c4.969 0 9.014-4.044 9.014-9.014v-133.534c0-4.969-4.045-9.014-9.014-9.014h-8.013c-4.972 0-9.014 4.045-9.014 9.014v133.534zM655.482 748.146c0.691-0.831 1.425-1.62 2.182-2.388 0.124-0.127 0.246-0.255 0.373-0.378 0.769-0.764 1.573-1.49 2.405-2.186 0.152-0.128 0.304-0.252 0.458-0.378 0.845-0.688 1.714-1.343 2.617-1.956 0.138-0.094 0.28-0.185 0.42-0.276 0.946-0.627 1.911-1.226 2.913-1.771 0.051-0.028 0.105-0.051 0.158-0.082 0.996-0.535 2.018-1.027 3.063-1.478 0.112-0.048 0.22-0.1 0.331-0.148 1.037-0.434 2.099-0.818 3.174-1.163 0.181-0.058 0.358-0.118 0.54-0.172 1.062-0.324 2.143-0.6 3.241-0.836 0.195-0.043 0.388-0.080 0.585-0.118 1.118-0.22 2.25-0.398 3.401-0.521 0.151-0.016 0.303-0.024 0.455-0.040 1.216-0.114 2.442-0.186 3.686-0.186h8.011c1.244 0 2.47 0.073 3.686 0.186 0.152 0.014 0.306 0.023 0.457 0.040 1.149 0.122 2.281 0.3 3.399 0.521 0.196 0.038 0.391 0.075 0.585 0.118 1.099 0.233 2.182 0.511 3.243 0.836 0.179 0.055 0.36 0.115 0.539 0.172 1.078 0.346 2.14 0.73 3.174 1.163 0.112 0.048 0.22 0.1 0.331 0.148 1.047 0.451 2.071 0.943 3.065 1.478 0.051 0.028 0.105 0.053 0.158 0.082 1.001 0.545 1.966 1.143 2.911 1.771 0.141 0.091 0.283 0.182 0.421 0.276 0.902 0.613 1.769 1.27 2.615 1.956 0.154 0.127 0.306 0.25 0.458 0.378 0.832 0.698 1.634 1.422 2.406 2.186 0.125 0.124 0.247 0.252 0.371 0.378 0.752 0.768 1.486 1.557 2.179 2.388 0.026-0.542 0.040-1.085 0.040-1.628 0-18.776-15.275-34.049-34.052-34.049-18.776 0-34.049 15.273-34.049 34.049 0.010 0.543 0.021 1.087 0.050 1.628zM428.102 906.657c0 4.97 4.042 9.014 9.014 9.014h8.013c4.969 0 9.014-4.044 9.014-9.014v-133.534c0-4.969-4.045-9.014-9.014-9.014h-8.013c-4.972 0-9.014 4.045-9.014 9.014v133.534zM407.108 748.146c0.691-0.831 1.425-1.62 2.182-2.388 0.124-0.127 0.246-0.255 0.373-0.378 0.769-0.764 1.573-1.49 2.405-2.186 0.152-0.128 0.304-0.252 0.458-0.378 0.845-0.688 1.714-1.343 2.617-1.956 0.138-0.094 0.28-0.185 0.42-0.276 0.946-0.627 1.911-1.226 2.913-1.771 0.051-0.028 0.105-0.051 0.158-0.082 0.996-0.535 2.020-1.027 3.063-1.478 0.112-0.048 0.22-0.1 0.331-0.148 1.037-0.434 2.099-0.818 3.174-1.163 0.181-0.058 0.358-0.118 0.54-0.172 1.062-0.324 2.143-0.6 3.241-0.836 0.195-0.043 0.388-0.080 0.585-0.118 1.118-0.22 2.25-0.398 3.401-0.521 0.151-0.016 0.303-0.024 0.458-0.040 1.213-0.114 2.442-0.186 3.685-0.186h8.013c1.244 0 2.47 0.073 3.686 0.186 0.151 0.014 0.306 0.023 0.458 0.040 1.149 0.122 2.281 0.3 3.399 0.521 0.196 0.038 0.39 0.075 0.585 0.118 1.099 0.233 2.182 0.511 3.241 0.836 0.181 0.055 0.36 0.115 0.54 0.172 1.078 0.346 2.14 0.73 3.174 1.163 0.111 0.048 0.219 0.1 0.331 0.148 1.047 0.451 2.071 0.943 3.065 1.478 0.051 0.028 0.105 0.053 0.158 0.082 1 0.545 1.966 1.143 2.911 1.771 0.141 0.091 0.282 0.182 0.42 0.276 0.903 0.613 1.771 1.27 2.617 1.956 0.154 0.127 0.306 0.25 0.458 0.378 0.832 0.698 1.634 1.422 2.406 2.186 0.125 0.124 0.247 0.252 0.371 0.378 0.751 0.768 1.485 1.557 2.176 2.388 0.026-0.542 0.040-1.085 0.040-1.628 0-18.776-15.273-34.049-34.052-34.049s-34.051 15.273-34.051 34.049c0.011 0.543 0.024 1.087 0.050 1.628zM179.728 906.657c0 4.97 4.045 9.014 9.014 9.014h8.013c4.969 0 9.014-4.044 9.014-9.014 0-25.1 0-107.789 0-133.534 0-4.969-4.045-9.014-9.014-9.014h-8.014c-4.971 0-9.014 4.045-9.014 9.014 0.001 12.075 0.001 120.662 0.001 133.534zM170.102 738.809c0.053-0.027 0.105-0.051 0.158-0.081 0.996-0.536 2.020-1.028 3.063-1.479 0.112-0.047 0.22-0.1 0.333-0.148 1.035-0.434 2.098-0.818 3.174-1.163 0.179-0.058 0.357-0.118 0.538-0.172 1.062-0.324 2.143-0.6 3.241-0.836 0.195-0.041 0.388-0.080 0.585-0.118 1.118-0.22 2.25-0.398 3.401-0.519 0.152-0.017 0.303-0.024 0.458-0.041 1.213-0.114 2.442-0.185 3.685-0.185h8.013c1.244 0 2.47 0.071 3.686 0.185 0.151 0.014 0.306 0.023 0.458 0.041 1.149 0.121 2.281 0.299 3.399 0.519 0.196 0.038 0.39 0.077 0.585 0.118 1.099 0.235 2.182 0.511 3.241 0.836 0.181 0.055 0.361 0.117 0.54 0.172 1.078 0.346 2.14 0.73 3.174 1.163 0.112 0.048 0.219 0.101 0.331 0.148 1.047 0.451 2.071 0.943 3.065 1.479 0.051 0.027 0.105 0.051 0.158 0.081 1 0.545 1.967 1.145 2.911 1.771 0.141 0.091 0.282 0.182 0.42 0.276 0.903 0.614 1.771 1.27 2.617 1.956 0.154 0.127 0.306 0.25 0.458 0.378 0.832 0.698 1.634 1.422 2.406 2.186 0.125 0.124 0.247 0.252 0.371 0.378 0.752 0.769 1.486 1.56 2.179 2.389 0.026-0.542 0.040-1.084 0.040-1.627 0-18.776-15.275-34.051-34.052-34.051-19.452 0-34.957 16.34-34.010 35.681 3.069-3.672 7.051-6.979 11.374-9.337zM30.046 779.829c0 27.888 22.69 50.579 50.58 50.579h69.060v-36.447c-43.248-39.299-15.352-111.539 43.063-111.539 35.342 0 64.097 28.754 64.097 64.097 0 18.167-7.744 35.369-21.032 47.444v36.444h162.244v-36.448c-13.289-12.073-21.033-29.274-21.033-47.441 0-35.345 28.754-64.097 64.097-64.097s64.095 28.754 64.095 64.097c0 18.167-7.744 35.369-21.032 47.444v36.445h162.244v-36.448c-13.288-12.073-21.032-29.274-21.032-47.441 0-35.345 28.754-64.097 64.095-64.097 35.345 0 64.097 28.754 64.097 64.097 0 18.167-7.744 35.369-21.032 47.444v36.445h96.988c27.89 0 50.581-22.69 50.581-50.578v-153.492h-850.082v153.493zM991.912 13.377c-7.306-19.766-26.378-33.047-47.46-33.047h-52.188c11.184 13.842 17.902 31.438 17.902 50.58v198.966c0 8.297-6.726 15.023-15.022 15.023s-15.022-6.726-15.022-15.023v-198.966c0-27.89-22.693-50.58-50.583-50.58h-748.915c-27.89 0-50.58 22.69-50.58 50.58v509.295h376.124c8.296 0 15.022 6.726 15.022 15.022s-6.726 15.023-15.022 15.023h-376.122v26.039h850.081v-26.039h-404.055c-8.296 0-15.022-6.727-15.022-15.023s6.726-15.022 15.022-15.022h404.055v-240.225c0-8.296 6.726-15.022 15.022-15.022s15.022 6.726 15.022 15.022c0 11.762 0 271.093 0 282.884l82.49-537.624c0.010-0.075 0.023-0.149 0.034-0.226 3.176-20.718-0.703-31.425-0.782-31.637zM342.374 463.181h-49.458c-8.297 0-15.023-6.726-15.023-15.023 0-8.296 6.726-15.022 15.023-15.022h49.458c8.297 0 15.022 6.726 15.022 15.022 0.003 8.297-6.724 15.023-15.022 15.023zM479.872 463.181h-49.465c-8.296 0-15.022-6.726-15.022-15.023 0-8.296 6.726-15.022 15.022-15.022h49.465c8.297 0 15.022 6.726 15.022 15.022 0.001 8.297-6.721 15.023-15.022 15.023zM617.371 463.181h-49.465c-8.296 0-15.023-6.726-15.023-15.023 0-8.296 6.727-15.022 15.023-15.022h49.465c8.297 0 15.023 6.726 15.023 15.022 0.001 8.297-6.726 15.023-15.023 15.023zM754.864 463.181h-49.463c-8.296 0-15.023-6.726-15.023-15.023 0-8.296 6.727-15.022 15.023-15.022h49.463c8.299 0 15.022 6.726 15.022 15.022 0.003 8.297-6.721 15.023-15.022 15.023zM204.88 342.153h-49.463c-8.296 0-15.022-6.726-15.022-15.022s6.726-15.023 15.022-15.023h49.463c8.299 0 15.023 6.727 15.023 15.023 0.001 8.297-6.723 15.022-15.023 15.022zM342.374 342.153h-49.458c-8.297 0-15.023-6.726-15.023-15.022s6.726-15.023 15.023-15.023h49.458c8.297 0 15.022 6.727 15.022 15.023 0.003 8.297-6.724 15.022-15.022 15.022zM479.872 342.153h-49.465c-8.296 0-15.022-6.726-15.022-15.022s6.726-15.023 15.022-15.023h49.465c8.297 0 15.022 6.727 15.022 15.023s-6.721 15.022-15.022 15.022zM617.371 342.153h-49.465c-8.296 0-15.023-6.726-15.023-15.022s6.727-15.023 15.023-15.023h49.465c8.297 0 15.023 6.727 15.023 15.023s-6.726 15.022-15.023 15.022zM754.864 342.153h-49.463c-8.296 0-15.023-6.726-15.023-15.022s6.727-15.023 15.023-15.023h49.463c8.299 0 15.022 6.727 15.022 15.023 0.003 8.297-6.721 15.022-15.022 15.022zM204.88 221.119h-49.463c-8.296 0-15.022-6.727-15.022-15.023s6.726-15.022 15.022-15.022h49.463c8.299 0 15.023 6.726 15.023 15.022 0.001 8.296-6.723 15.023-15.023 15.023zM342.374 221.119h-49.458c-8.297 0-15.023-6.727-15.023-15.023s6.726-15.022 15.023-15.022h49.458c8.297 0 15.022 6.726 15.022 15.022 0.003 8.296-6.724 15.023-15.022 15.023zM479.872 221.119h-49.465c-8.296 0-15.022-6.727-15.022-15.023s6.726-15.022 15.022-15.022h49.465c8.297 0 15.022 6.726 15.022 15.022s-6.721 15.023-15.022 15.023zM617.371 221.119h-49.465c-8.296 0-15.023-6.727-15.023-15.023s6.727-15.022 15.023-15.022h49.465c8.297 0 15.023 6.726 15.023 15.022s-6.726 15.023-15.023 15.023zM754.864 221.119h-49.463c-8.296 0-15.023-6.727-15.023-15.023s6.727-15.022 15.023-15.022h49.463c8.299 0 15.022 6.726 15.022 15.022 0.003 8.296-6.721 15.023-15.022 15.023zM204.88 100.083h-49.463c-8.296 0-15.022-6.726-15.022-15.022s6.726-15.023 15.022-15.023h49.463c8.299 0 15.023 6.727 15.023 15.023 0.001 8.296-6.723 15.022-15.023 15.022zM342.374 100.083h-49.458c-8.297 0-15.023-6.726-15.023-15.022s6.726-15.023 15.023-15.023h49.458c8.297 0 15.022 6.727 15.022 15.023 0.003 8.296-6.724 15.022-15.022 15.022zM479.872 100.083h-49.465c-8.296 0-15.022-6.726-15.022-15.022s6.726-15.023 15.022-15.023h49.465c8.297 0 15.022 6.727 15.022 15.023s-6.721 15.022-15.022 15.022zM617.371 100.083h-49.465c-8.296 0-15.023-6.726-15.023-15.022s6.727-15.023 15.023-15.023h49.465c8.297 0 15.023 6.727 15.023 15.023s-6.726 15.022-15.023 15.022z" />
<glyph unicode="&#xe908;" glyph-name="arrow-right" d="M226.561-38.994c-18.507 20.299-17.055 51.756 3.243 70.264l457.060 416.733-457.060 416.731c-20.298 18.507-21.75 49.966-3.243 70.264s49.966 21.75 70.264 3.243l497.372-453.485c10.337-9.424 16.226-22.765 16.226-36.753s-5.889-27.329-16.226-36.756l-497.372-453.486c-20.298-18.505-51.757-17.054-70.264 3.245z" />
<glyph unicode="&#xe909;" d="M237.589 875.836c0 38.736 31.402 70.137 70.137 70.137h645.26c38.735 0 70.137-31.401 70.137-70.137v-476.932c0-38.735-31.402-70.137-70.137-70.137h-645.26c-38.735 0-70.137 31.402-70.137 70.137v476.932z" />
<glyph unicode="&#xe90a;" d="M909.999 854.384h-838.082c-39.656 0-71.918-32.261-71.918-71.917v-632.877c0-39.657 32.261-71.918 71.918-71.918h306.958l-17.311-60.591c-6.952-24.333-34.204-44.888-59.51-44.888h-108.356c-7.944 0-14.384-6.439-14.384-14.384s6.44-14.384 14.384-14.384h594.52c7.944 0 14.384 6.439 14.384 14.384s-6.44 14.384-14.384 14.384h-108.356c-25.305 0-52.558 20.557-59.51 44.888l-17.311 60.591h306.957c39.657 0 71.918 32.262 71.918 71.918v632.877c0 39.656-32.262 71.917-71.918 71.917zM71.918 825.616h838.082c23.795 0 43.151-19.358 43.151-43.15v-503.425h-924.383v503.425c0 23.792 19.356 43.15 43.151 43.15zM592.693 9.177c3.947-13.818 11.793-26.512 22.078-36.985h-247.623c10.285 10.473 18.13 23.169 22.078 36.985l19.57 68.494h164.327l19.571-68.494zM909.999 106.438h-838.082c-23.794 0-43.151 19.358-43.151 43.151v100.684h924.383v-100.684c0-23.793-19.356-43.151-43.151-43.151z" />
<glyph unicode="&#xe90b;" d="M71.918 307.809h838.082c7.944 0 14.384 6.437 14.384 14.382v460.275c0 7.945-6.44 14.382-14.384 14.382h-838.082c-7.944 0-14.384-6.437-14.384-14.382v-201.37c0-7.945 6.44-14.384 14.384-14.384s14.384 6.439 14.384 14.384v186.987h809.316v-431.508h-809.316v186.987c0 7.945-6.44 14.384-14.384 14.384s-14.384-6.439-14.384-14.384v-201.37c0-7.945 6.44-14.382 14.384-14.382z" />
<glyph unicode="&#xe90c;" d="M490.959 221.507c-23.795 0-43.151-19.358-43.151-43.151s19.356-43.15 43.151-43.15 43.151 19.358 43.151 43.15c0 23.793-19.356 43.151-43.151 43.151zM490.959 163.973c-7.932 0-14.384 6.451-14.384 14.382 0 7.932 6.451 14.384 14.384 14.384s14.384-6.451 14.384-14.384c0-7.931-6.451-14.382-14.384-14.382z" />
<glyph unicode="&#xe90d;" d="M896.823 350.379l0.007-137.415v-113.022c0-16.917-13.764-30.682-30.682-30.682l-491.792 0.004c-16.918 0-30.682 13.764-30.682 30.682v250.437c0 71.075 60.858 96.912 63.449 97.977l0.226 0.090 133.629 51.806c6.569 2.547 13.555 3.853 20.599 3.853h117.195c7.039 0 14.018-1.305 20.581-3.846l133.793-51.814c0.077-0.028 0.153-0.059 0.229-0.091 2.591-1.066 63.449-26.902 63.449-97.979z" />
<glyph unicode="&#xe90e;" d="M837.587 134.666c-8.17 0-14.793-6.624-14.793-14.795v-139.096c0-4.504-3.665-8.168-8.17-8.168h-79.528v291.346c0 8.171-6.625 14.795-14.795 14.795-8.171 0-14.795-6.624-14.795-14.795v-291.349h-160.147l46.442 51.091c5.074 5.583 7.465 13.534 6.399 21.278-0.020 0.15-0.043 0.3-0.070 0.45l-44.231 261.305 11.916 17.938c6.589-4.68 11.664-9.184 21.183-9.184 9.68 0 18.734 5.419 23.187 14.339v0.001l46.652 93.501 106.276-41.158c3.845-1.65 59.675-26.792 59.675-93.183v-100.070c-0.003-8.168 6.622-14.795 14.795-14.795 8.17 0 14.795 6.625 14.795 14.795v100.070c0 87.473-74.898 119.269-78.086 120.582-0.093 0.039-0.187 0.076-0.282 0.112l-176.88 68.5v41.485c28.094 21.848 47.574 54.237 52.464 91.186 14.008 0.988 27.006 6.218 37.62 15.346 13.86 11.92 21.814 29.27 21.814 47.591 0 15.204-5.485 29.723-15.262 41.036v54.805c-0.001 101.104-82.255 183.359-183.359 183.359s-183.358-82.256-183.358-183.359v-56.241c-9.881-11.198-15.253-24.983-15.253-39.598 0-18.327 7.949-35.674 21.814-47.596 10.608-9.123 23.597-14.349 37.6-15.338 4.929-37.643 24.977-71.238 55.464-93.38v-39.295l-176.689-68.499c-0.093-0.035-0.185-0.073-0.278-0.111-3.19-1.312-78.085-33.107-78.085-120.581v-308.209c0-20.821 16.938-37.76 37.759-37.76h140.956c8.171 0 14.795 6.624 14.795 14.795s-6.624 14.795-14.795 14.795h-31.831v291.345c0 8.171-6.624 14.795-14.795 14.795s-14.795-6.624-14.795-14.795v-291.349h-79.534c-4.503 0-8.168 3.665-8.168 8.168v308.214c0 66.612 56.205 91.698 59.657 93.174l106.193 41.168 46.657-93.505c4.464-8.942 13.528-14.34 23.19-14.34 9.47 0 14.497 4.435 21.181 9.184l11.916-17.938-44.227-261.308c-0.025-0.147-0.048-0.296-0.069-0.445-1.069-7.742 1.323-15.697 6.399-21.282l46.441-51.091h-59.169c-8.17 0-14.793-6.624-14.793-14.795s6.624-14.795 14.793-14.795h395.242c20.821 0 37.759 16.941 37.759 37.759v139.097c-0.004 8.172-6.628 14.796-14.799 14.796zM629.125 434.055l-43.493-87.169c-1.082 0.767-24.131 17.144-52.308 37.152 12.226 15.093-2.076-2.561 53.725 66.313l42.077-16.296zM541.676 341.808l-11.279-16.977h-36.895l-11.278 16.977 29.727 21.113 29.725-21.113zM456.262 473.405v27.687c17.975-7.245 37.184-10.605 55.943-10.605 19.397 0 38.418 4.135 55.335 11.532v-28.735l-55.589-68.616-55.689 68.737zM679.438 673.786c-0.001-9.692-4.2-18.863-11.518-25.157-4.838-4.162-10.683-6.823-17.084-7.865v66.037c17.003-2.762 28.602-16.865 28.602-33.015zM369.988 640.764c-17.198 2.791-28.602 17.010-28.602 33.023 0 15.817 13.111 28.69 28.602 32.27v-65.293zM370.783 736.206c-4.713-0.541-10.114-1.817-14.14-3.186v36.607c0 84.788 68.978 153.768 153.766 153.768 84.789 0 153.767-68.98 153.767-153.768v-35.592c-4.301 1.307-8.76 2.171-13.339 2.578 0 14.276 0.125 11.522-46.577 61.73-8.589 9.227-22.796 11.162-33.608 4.097-51.544-33.67-114.42-50.586-172.435-46.419-12.726 0.952-24.316-7.429-27.435-19.817zM399.579 629.116v97.165c63.864-3.74 130.82 15.232 184.911 49.873 21.418-22.997 33.018-35.059 36.757-39.647 0-11.606 0-94.103 0-107.388 0-60.060-48.972-109.038-109.039-109.038-67.452-0.003-112.629 52.324-112.629 109.035zM438.272 346.886l-43.495 87.169 42.004 16.269 53.735-66.33c-27.325-19.404-49.764-35.346-52.244-37.108zM455.247 42.232l42.823 253.011h27.756l42.824-253.011-56.702-62.38-56.702 62.38z" />
<glyph unicode="&#xe90f;" d="M387.691 529.906h-330.798c-15.709 0-28.444-12.736-28.444-28.444v-125.117c0-15.71 12.735-28.444 28.445-28.444h625.777c15.71 0 28.444 12.735 28.444 28.444v189.615c0 4.103-0.887 8.159-2.603 11.887l-40.348 87.718c-4.642 10.091-14.734 16.558-25.842 16.558h-197.742c-15.71 0-28.444-12.736-28.444-28.444v-95.327c0-15.71-12.735-28.444-28.444-28.444z" />
<glyph unicode="&#xe910;" d="M147.513 191.711c-31.31 0-56.784-25.482-56.784-56.804s25.472-56.804 56.784-56.804c31.312 0 56.786 25.482 56.786 56.804s-25.476 56.804-56.786 56.804zM147.513 108.103c-14.768 0-26.784 12.026-26.784 26.805s12.016 26.805 26.784 26.805c14.77 0 26.786-12.026 26.786-26.805s-12.016-26.805-26.786-26.805z" />
<glyph unicode="&#xe911;" d="M779.3 78.104c31.31 0 56.785 25.482 56.785 56.804s-25.472 56.804-56.785 56.804c-31.312 0-56.785-25.482-56.785-56.804 0-31.32 25.473-56.804 56.785-56.804zM779.3 161.714c14.768 0 26.785-12.026 26.785-26.805 0-14.777-12.016-26.803-26.785-26.803s-26.786 12.026-26.786 26.803c0 14.778 12.016 26.805 26.786 26.805z" />
<glyph unicode="&#xe912;" d="M213.234 169.826c-2.826-3.837-3.659-8.792-2.246-13.346 2.158-6.956 3.254-14.211 3.254-21.574 0-7.36-1.097-14.62-3.255-21.575-1.412-4.553-0.579-9.506 2.25-13.345 2.826-3.839 7.307-6.104 12.076-6.104h476.18c4.767 0 9.25 2.266 12.076 6.104s3.662 8.792 2.25 13.345c-2.16 6.958-3.257 14.215-3.257 21.575 0 7.363 1.097 14.62 3.257 21.574 1.412 4.553 0.577 9.509-2.249 13.346-2.827 3.839-7.31 6.104-12.078 6.104h-476.18c-4.764 0-9.25-2.266-12.079-6.104zM243.658 145.93h439.495c-0.391-3.649-0.589-7.327-0.589-11.024s0.198-7.374 0.589-11.024h-439.497c0.39 3.649 0.587 7.327 0.587 11.024s-0.196 7.374-0.586 11.024z" />
<glyph unicode="&#xe913;" d="M401.070 395.541c-8.286 0-15-6.714-15-15s6.714-15 15-15h34.908c8.286 0 15 6.714 15 15s-6.714 15-15 15h-34.908z" />
<glyph unicode="&#xe914;" d="M85.372 341.983c5.552 0 10.89 3.098 13.49 8.421l35.414 72.521c3.634 7.444 0.546 16.427-6.896 20.060-7.446 3.638-16.428 0.546-20.060-6.896l-35.414-72.521c-3.634-7.444-0.546-16.425 6.896-20.059 2.118-1.037 4.36-1.526 6.57-1.526z" />
<glyph unicode="&#xe915;" d="M156.314 341.982c5.551 0 10.89 3.096 13.49 8.422l35.416 72.521c3.634 7.444 0.548 16.425-6.896 20.059-7.448 3.638-16.428 0.549-20.060-6.895l-35.416-72.521c-3.633-7.444-0.548-16.427 6.896-20.060 2.121-1.035 4.362-1.526 6.571-1.526z" />
<glyph unicode="&#xe916;" d="M227.264 341.982c5.552 0 10.89 3.096 13.491 8.422l35.415 72.521c3.635 7.444 0.549 16.425-6.895 20.059-7.447 3.638-16.427 0.549-20.060-6.895l-35.416-72.521c-3.634-7.444-0.548-16.427 6.896-20.060 2.118-1.035 4.359-1.526 6.569-1.526z" />
<glyph unicode="&#xe917;" d="M1018.523 427.438l-36.958 85.606c-0.189 0.439-0.401 0.868-0.631 1.286l-63.238 151.078c-3.199 7.642-11.992 11.244-19.627 8.044-7.642-3.199-11.244-11.986-8.044-19.627l58.13-138.873-19.866-8.586-153.362 294.447c-0.016 0.032-0.028 0.066-0.044 0.098-0.418 0.81-0.784 1.634-1.108 2.468-0.107 0.276-0.186 0.558-0.282 0.836-0.212 0.61-0.414 1.222-0.576 1.844-0.077 0.294-0.135 0.59-0.201 0.886-0.142 0.64-0.266 1.282-0.356 1.932-0.037 0.256-0.064 0.512-0.090 0.77-0.077 0.72-0.122 1.446-0.135 2.176-0.050 2.996 0.424 6.012 1.492 8.94 2.415 6.61 7.326 11.724 13.831 14.402 12.534 5.158 26.995-0.824 32.233-13.334l46.948-112.157c3.2-7.644 11.996-11.247 19.627-8.044 7.642 3.197 11.244 11.985 8.044 19.625l-46.948 112.16c-11.584 27.676-43.581 40.908-71.323 29.492-14.184-5.834-25.334-17.446-30.596-31.854-1.007-2.758-1.779-5.58-2.325-8.43l-228.102-93.85c-3.888 0.55-7.855 0.854-11.893 0.854h-60.718c-21.443 0-38.886-17.45-38.886-38.897v-64.432h-40.274c-19.126 0-34.688-15.565-34.688-34.698v-85.197c0-2.59-2.103-4.698-4.688-4.698h-289.18c-19.128-0.001-34.688-15.566-34.688-34.698v-36.392c0-8.286 6.714-15 15-15s15 6.714 15 15v36.392c0 2.59 2.104 4.698 4.688 4.698h289.183c19.126 0 34.688 15.565 34.688 34.698v85.197c0 2.59 2.103 4.698 4.688 4.698h219.638c2.192 0 4.15-1.225 5.114-3.199l45.604-93.443c1.301-2.675 1.993-5.656 1.993-8.629v-181.724c0-3.143-2.553-5.703-5.693-5.703h-595.214c-2.584 0-4.688 2.108-4.688 4.698v61.879c0 8.286-6.714 15-15 15s-15-6.714-15-15v-61.879c0-19.132 15.56-34.698 34.688-34.698h264.102v-32.772h-165.386c-58.39 0-105.896-47.504-105.896-105.94 0-58.389 47.504-105.896 105.896-105.896h659.996c58.389 0 105.896 47.504 105.896 105.941 0 58.388-47.504 105.894-105.896 105.894h-182.592v32.772h19.093c19.681 0 35.692 16.016 35.692 35.703v181.724c0 7.504-1.739 15.036-5.032 21.784l-45.604 93.446c-5.254 10.768-15.71 18.152-27.425 19.721v7.674l188.298 100.473 124.837-239.692-140.813-60.854c-9.532-4.122-15.505-13.13-15.592-23.516-0.085-10.227 5.881-19.558 15.202-23.772l135.575-61.271c8.71-3.938 17.974-5.935 27.533-5.935 9.175 0 18.096 1.846 26.52 5.484l34.557 14.935c33.845 14.623 49.488 54.073 34.869 87.933zM328.794 273.599h252.018v-32.772h-252.018v32.772zM793.402 210.825c41.847 0 75.897-34.045 75.897-75.941 0-41.847-34.045-75.895-75.895-75.895h-659.996c-41.848 0-75.896 34.045-75.896 75.942 0 41.847 34.046 75.894 75.896 75.894h659.995zM557.53 645.183v-18.89l-124.006 0.001v64.432c0 4.905 3.986 8.897 8.886 8.897h60.719c3.702 0 7.317-0.375 10.813-1.084 1.36-0.274 2.692-0.614 4.011-0.988 0.307-0.088 0.616-0.169 0.922-0.262 1.205-0.364 2.384-0.774 3.548-1.216 0.395-0.149 0.789-0.306 1.179-0.466 1.098-0.448 2.18-0.922 3.24-1.438 0.408-0.198 0.806-0.411 1.209-0.62 0.872-0.449 1.728-0.922 2.57-1.418 0.486-0.286 0.966-0.58 1.442-0.879 0.818-0.516 1.62-1.055 2.406-1.613 0.357-0.253 0.72-0.499 1.070-0.762 0.942-0.701 1.856-1.439 2.749-2.2 0.307-0.259 0.61-0.522 0.909-0.788 0.922-0.819 1.82-1.665 2.682-2.546 0.196-0.199 0.385-0.405 0.579-0.61 0.937-0.984 1.85-1.99 2.711-3.042 0.010-0.013 0.020-0.027 0.031-0.040 0.949-1.159 1.85-2.359 2.701-3.595 0.016-0.023 0.031-0.047 0.048-0.068 0.848-1.234 1.644-2.506 2.389-3.81 0.024-0.041 0.048-0.082 0.070-0.122 2.988-5.249 5.114-11.025 6.228-17.115 0.028-0.156 0.057-0.313 0.084-0.471 0.245-1.408 0.435-2.832 0.569-4.27 0.018-0.192 0.028-0.384 0.044-0.579 0.119-1.465 0.196-2.944 0.196-4.436l0.001-0.003zM584.882 666.236c-2.95 11.46-8.269 21.97-15.373 31.014-0.178 0.226-0.351 0.452-0.532 0.678-0.533 0.666-1.078 1.32-1.63 1.967-0.296 0.348-0.593 0.693-0.896 1.034-0.485 0.55-0.974 1.098-1.472 1.637-0.424 0.458-0.858 0.907-1.291 1.355-0.412 0.427-0.822 0.855-1.244 1.273-0.664 0.66-1.345 1.301-2.032 1.937-0.218 0.202-0.428 0.41-0.647 0.61-1.802 1.638-3.674 3.204-5.618 4.686l192.084 79.032c0.051-0.128 0.121-0.25 0.175-0.378 0.585-1.396 1.21-2.778 1.914-4.128l13.659-26.224-177.097-94.494zM971.752 367.039l-34.556-14.935c-9.481-4.095-20.38-4.006-29.793 0.246l-127.024 57.408 145.815 63.014c0.414 0.138 0.826 0.283 1.234 0.459l32.549 14.12 31.004-71.808c8.064-18.674-0.565-40.435-19.23-48.505z" />
<glyph unicode="&#xe918;" d="M590.851 415.528v0.001c10.641 0 19.297 8.658 19.297 19.298v51.812c0 2.9-0.67 5.818-1.957 8.464l-34.67 71.043c-3.211 6.582-10.020 10.833-17.341 10.833h-153.22c-10.641 0-19.297-8.657-19.297-19.297v-70.572c0-5.117 2.086-10.116 5.734-13.729l52.912-52.285c3.634-3.591 8.451-5.568 13.559-5.568h134.982zM413.663 491.58v55.401h135.829l30.655-62.812v-38.639h-119.881l-46.603 46.050z" />
<glyph unicode="&#xe919;" d="M343.674 279.673v364.224c0 19.526 8.142 38.17 22.463 51.443l245.479 227.494c26.896 24.925 68.452 24.925 95.348 0l245.479-227.494c14.322-13.273 22.462-31.917 22.462-51.443v-364.224c0-38.737-31.4-70.137-70.137-70.137h-490.959c-38.735 0-70.137 31.4-70.137 70.137z" />
<glyph unicode="&#xe91a;" d="M69.133 466.439c21.463-22.065 56.678-22.489 78.678-1.087l8.398 8.17v-425.629c-15.838-0.213-28.66-13.148-28.66-29.035v-46.784c0-16.022 13.033-29.056 29.053-29.056h710.8c16.021 0 29.055 13.034 29.055 29.056v46.784c0 15.89-12.825 28.822-28.664 29.035v425.629l8.398-8.17c22.351-21.737 57.501-20.688 78.678 1.087 21.442 22.043 20.963 57.235-1.087 78.678l-108.813 105.847v92.978c0 8.17-6.621 14.792-14.792 14.792s-14.793-6.622-14.793-14.792v-64.199l-79.608 77.44v90.794h79.608v-35.001c0-8.17 6.621-14.793 14.793-14.793s14.792 6.624 14.792 14.793v35.001c20.913 0 31.677 14.471 31.677 29.055v46.785c0 16.022-13.034 29.055-29.055 29.055h-144.021c-16.021 0-29.055-13.033-29.055-29.055v-46.785c0-14.552 10.682-29.055 31.677-29.055v-62.018l-155.396 151.155c-21.755 21.166-55.837 21.164-77.593 0l-402.984-391.996c-22.045-21.441-22.53-56.631-1.087-78.678zM866.871-27.401h-709.739v45.728h709.739v-45.728zM467.613 479.18h-68.827c-8.171 0-14.792-6.621-14.792-14.792 0-8.172 6.621-14.793 14.792-14.793h65.060v-42.232h-199.151v42.232h65.060c8.171 0 14.793 6.621 14.793 14.793 0 8.171-6.622 14.792-14.793 14.792h-68.825c-14.239 0-25.823-11.584-25.823-25.822v-405.446h-49.313v454.388l326.207 317.311 326.207-317.311v-454.388h-344.774v405.448c0 14.236-11.584 25.82-25.822 25.82zM463.85 377.777v-329.865h-199.154v329.865h199.154zM704.1 877.561v45.725h142.959v-45.725h-142.959zM90.849 523.909l402.984 391.997c10.188 9.911 26.144 9.911 36.335 0l402.985-391.998c10.323-10.035 10.547-26.516 0.508-36.84-10.074-10.359-26.559-10.508-36.842-0.509l-374.503 364.293c-5.743 5.586-14.884 5.586-20.629 0l-374.507-364.293c-10.292-10.017-26.775-9.833-36.84 0.512-10.039 10.321-9.814 26.799 0.509 36.839z" />
<glyph unicode="&#xe91b;" d="M556.387 92.533h206.682c14.239 0 25.823 11.584 25.823 25.823v335.007c0 14.239-11.584 25.822-25.823 25.822h-206.682c-14.238 0-25.822-11.582-25.822-25.822v-335.007c0-14.239 11.584-25.823 25.822-25.823zM759.306 122.12h-84.783v113.036h84.783v-113.036zM759.306 264.742h-84.783v113.040h84.783v-113.040zM560.15 449.598h199.155v-42.232h-199.155v42.232zM560.15 377.78h84.784v-113.041h-84.784v113.041zM560.15 235.155h84.784v-113.036h-84.784v113.036z" />
<glyph unicode="&#xe91c;" d="M398.925 189.2c24.486 0 44.408 19.92 44.408 44.405 0 24.488-19.922 44.408-44.408 44.408-24.488 0-44.408-19.92-44.408-44.408 0.001-24.486 19.92-44.405 44.408-44.405zM398.925 248.427c8.174 0 14.823-6.649 14.823-14.823 0-8.171-6.649-14.82-14.823-14.82s-14.823 6.649-14.823 14.82c0.003 8.174 6.65 14.823 14.823 14.823z" />
<glyph unicode="&#xe91d;" d="M385.756 167.452v673.315c0 23.241 18.842 42.082 42.082 42.082h378.74c23.242 0 42.082-18.841 42.082-42.082v-673.315c0-23.241-18.84-42.082-42.082-42.082h-378.74c-23.241 0-42.082 18.842-42.082 42.082z" />
<glyph unicode="&#xe91e;" d="M605.257 805.317h56.929c8.172 0 14.795 6.622 14.795 14.795s-6.622 14.795-14.795 14.795h-42.134v29.451h42.134c8.172 0 14.795 6.622 14.795 14.795s-6.622 14.794-14.795 14.794h-42.134v29.451h42.134c8.172 0 14.795 6.622 14.795 14.795s-6.622 14.795-14.795 14.795h-56.929c-8.172 0-14.795-6.622-14.795-14.795v-118.080c0-8.172 6.624-14.795 14.795-14.795z" />
<glyph unicode="&#xe91f;" d="M489.378 923.397h14.657v-103.285c0-8.172 6.621-14.795 14.793-14.795s14.795 6.622 14.795 14.795v103.285h14.659c8.172 0 14.795 6.622 14.795 14.795s-6.622 14.795-14.795 14.795h-58.901c-8.174 0-14.795-6.622-14.795-14.795s6.621-14.795 14.792-14.795z" />
<glyph unicode="&#xe920;" d="M375.257 805.317h58.902c8.172 0 14.795 6.622 14.795 14.795v118.080c0 8.173-6.622 14.795-14.795 14.795h-58.902c-8.172 0-14.795-6.622-14.795-14.795v-118.080c0-8.172 6.622-14.795 14.795-14.795zM390.051 923.397h29.313v-88.491h-29.313v88.491z" />
<glyph unicode="&#xe921;" d="M854.684 31.686h-61.318v657.391c23.058 6.457 40.012 27.619 40.012 52.659 0 18.742-15.273 33.99-34.049 33.99h-5.963v44.384c0 8.173-6.622 14.795-14.795 14.795h-42.134v103.287c0 8.173-6.622 14.795-14.795 14.795s-14.795-6.622-14.795-14.795v-118.080c0-8.172 6.622-14.795 14.795-14.795h42.134v-29.589h-492.081v88.63h29.313v-44.245c0-8.172 6.622-14.795 14.795-14.795s14.793 6.622 14.793 14.795v118.080c0 8.173-6.621 14.795-14.793 14.795s-14.795-6.622-14.795-14.795v-44.247h-29.313v44.247c0 8.173-6.622 14.795-14.795 14.795s-14.795-6.622-14.795-14.795v-162.464h-5.963c-18.776 0-34.049-15.248-34.049-33.99 0-25.040 16.954-46.202 40.012-52.659v-657.391h-72.783c-18.795 0-34.087-15.248-34.087-33.99 0-30.153 24.62-54.684 54.885-54.684h643.764c30.266 0 54.885 24.531 54.885 54.683 0 18.741-15.291 33.99-34.087 33.99zM833.885-27.397h-643.764c-13.947 0-25.297 11.256-25.297 25.094 0 2.425 2.017 4.4 4.499 4.4h476.664c8.172 0 14.795 6.622 14.795 14.795s-6.622 14.795-14.795 14.795h-74.007v255.909c0 8.172-6.621 14.795-14.793 14.795h-78.904c-8.172 0-14.795-6.622-14.795-14.795v-255.907h-191.795v655.157h54.003c8.172 0 14.795 6.622 14.795 14.795s-6.622 14.795-14.795 14.795h-68.796v0.208c-13.905 0-25.218 11.257-25.218 25.095 0 2.427 2.002 4.4 4.461 4.4h563.187c2.46 0 4.461-1.974 4.461-4.4 0-13.838-11.313-25.095-25.218-25.095v-0.208h-383.558c-8.174 0-14.795-6.622-14.795-14.795s6.621-14.795 14.795-14.795h368.762v-655.158h-48.81c-8.174 0-14.795-6.622-14.795-14.795s6.621-14.795 14.795-14.795h139.718c2.481 0 4.497-1.975 4.497-4.4 0-13.838-11.348-25.094-25.296-25.094zM542.392 243.213h-49.316v29.589h49.316v-29.589zM493.076 213.623h49.316v-181.935h-49.316v181.935z" />
<glyph unicode="&#xe922;" d="M395.014 657.014h-78.904c-8.174 0-14.795-6.622-14.795-14.795v-118.356c0-8.172 6.621-14.795 14.795-14.795h78.904c8.172 0 14.793 6.622 14.793 14.795v118.356c0 8.172-6.621 14.795-14.793 14.795zM380.22 627.424v-29.589h-49.316v29.589h49.316zM330.903 538.658v29.589h49.316v-29.589h-49.316z" />
<glyph unicode="&#xe923;" d="M395.014 479.802h-78.904c-8.174 0-14.795-6.622-14.795-14.795v-118.356c0-8.172 6.621-14.795 14.795-14.795h78.904c8.172 0 14.793 6.622 14.793 14.795v118.356c0 8.172-6.621 14.795-14.793 14.795zM380.22 450.212v-29.589h-49.316v29.589h49.316zM330.903 361.445v29.589h49.316v-29.589h-49.316z" />
<glyph unicode="&#xe924;" d="M395.014 302.39h-78.904c-8.174 0-14.795-6.621-14.795-14.795v-181.049c0-8.172 6.621-14.795 14.795-14.795h78.904c8.172 0 14.793 6.622 14.793 14.795v181.049c0 8.171-6.621 14.795-14.793 14.795zM380.22 272.802v-29.589h-49.316v29.589h49.316zM330.903 121.338v92.283h49.316v-92.283h-49.316z" />
<glyph unicode="&#xe925;" d="M557.185 657.014h-78.904c-8.172 0-14.795-6.622-14.795-14.795v-118.356c0-8.172 6.622-14.795 14.795-14.795h78.904c8.172 0 14.795 6.622 14.795 14.795v118.356c0 8.172-6.622 14.795-14.795 14.795zM542.39 627.424v-29.589h-49.315v29.589h49.315zM493.076 538.658v29.589h49.315v-29.589h-49.315z" />
<glyph unicode="&#xe926;" d="M557.185 479.802h-78.904c-8.172 0-14.795-6.622-14.795-14.795v-118.356c0-8.172 6.622-14.795 14.795-14.795h78.904c8.172 0 14.795 6.622 14.795 14.795v118.356c0 8.172-6.622 14.795-14.795 14.795zM542.39 450.212v-29.589h-49.315v29.589h49.315zM493.076 361.445v29.589h49.315v-29.589h-49.315z" />
<glyph unicode="&#xe927;" d="M641.021 509.068h78.904c8.172 0 14.793 6.622 14.793 14.795v118.356c0 8.172-6.621 14.795-14.793 14.795h-78.904c-8.174 0-14.795-6.622-14.795-14.795v-118.356c0-8.172 6.624-14.795 14.795-14.795zM655.814 538.658v29.589h49.316v-29.589h-49.316zM705.131 627.424v-29.589h-49.316v29.589h49.316z" />
<glyph unicode="&#xe928;" d="M641.021 331.856h78.904c8.172 0 14.793 6.622 14.793 14.795v118.356c0 8.172-6.621 14.795-14.793 14.795h-78.904c-8.174 0-14.795-6.622-14.795-14.795v-118.356c0-8.171 6.624-14.795 14.795-14.795zM655.814 361.445v29.589h49.316v-29.589h-49.316zM705.131 450.212v-29.589h-49.316v29.589h49.316z" />
<glyph unicode="&#xe929;" d="M734.719 106.546v181.049c0 8.174-6.621 14.795-14.793 14.795h-78.904c-8.174 0-14.795-6.621-14.795-14.795v-181.049c0-8.172 6.621-14.795 14.795-14.795h78.904c8.172 0 14.793 6.624 14.793 14.795zM705.131 272.803v-29.589h-49.316v29.589h49.316zM655.814 121.341v92.282h49.316v-92.282h-49.316z" />
<glyph unicode="&#xe92a;" d="M931.945 602.301c0-197.552-160.147-357.699-357.699-357.699s-357.699 160.147-357.699 357.699c0 197.552 160.147 357.699 357.699 357.699s357.699-160.147 357.699-357.699z" />
<glyph unicode="&#xe92b;" d="M450.629 488.329c-56.396 0-102.281 45.885-102.281 102.281v40.911c0 56.403 45.885 102.288 102.281 102.288 56.394 0 102.279-45.885 102.279-102.288v-40.911c0-56.396-45.885-102.281-102.279-102.281zM450.629 692.89c-33.84 0-61.37-27.532-61.37-61.37v-40.911c0-33.84 27.53-61.37 61.37-61.37 33.838 0 61.37 27.53 61.37 61.37v40.911c0 33.838-27.532 61.37-61.37 61.37z" />
<glyph unicode="&#xe92c;" d="M512.035 283.76h-122.814c-69.041 0.022-114.806 44.986-116.709 46.903-3.842 3.828-5.993 9.028-5.993 14.466v70.885c0 13.724 6.809 26.451 18.226 34.040l104.514 69.671v9.513h40.911v-20.459c0-6.833-3.417-13.215-9.102-17.021l-113.637-75.745v-61.535c12.278-9.694 42.431-29.786 81.806-29.808h122.799c39.751 0.022 69.618 20.033 81.792 29.725v61.618l-113.637 75.745c-5.687 3.806-9.102 10.188-9.102 17.021v20.459h40.911v-9.513l104.513-69.671c11.417-7.634 18.227-20.354 18.227-34.040v-70.885c0-5.438-2.15-10.638-5.994-14.466-1.925-1.918-47.668-46.881-116.709-46.903z" />
<glyph unicode="&#xe92d;" d="M123.321 467.867c-11.29 0-20.452 9.161-20.452 20.459 0 191.757 156.001 347.76 347.76 347.76 11.289 0 20.459-9.162 20.459-20.46 0-11.289-9.17-20.451-20.459-20.451-169.194 0-306.85-137.655-306.85-306.849 0-11.298-9.162-20.459-20.459-20.459z" />
<glyph unicode="&#xe92e;" d="M450.629 140.562c-11.289 0-20.459 9.147-20.459 20.459s9.17 20.459 20.459 20.459c169.194 0 306.849 137.648 306.849 306.849 0 11.291 9.147 20.452 20.459 20.452s20.452-9.161 20.452-20.452c0-191.766-156.001-347.767-347.76-347.767z" />
<glyph unicode="&#xe92f;" d="M450.627 58.741c-236.885 0-429.586 192.715-429.586 429.586 0 236.886 192.701 429.587 429.586 429.587 236.864 0 429.588-192.701 429.588-429.587 0-236.871-192.724-429.586-429.588-429.586zM450.627 876.996c-214.32 0-388.676-174.347-388.676-388.669 0-214.329 174.355-388.675 388.676-388.675 214.322 0 388.677 174.347 388.677 388.675 0 214.322-174.355 388.669-388.677 388.669z" />
<glyph unicode="&#xe930;" d="M900.675-64c-5.236 0-10.473 2-14.466 5.993l-122.74 122.74c-8 7.994-8 20.923 0 28.924s20.932 8.001 28.924 0l122.74-122.74c8.001-8.001 8.001-20.93 0-28.924-3.985-3.992-9.222-5.993-14.458-5.993z" />
<glyph unicode="&#xe931;" d="M982.496 17.823c-5.236 0-10.473 2.007-14.458 5.993l-122.74 122.74c-8 8.001-8 20.932 0 28.933 7.994 7.993 20.925 7.993 28.924 0l122.74-122.74c8.001-8.001 8.001-20.932 0-28.933-3.992-3.985-9.229-5.993-14.466-5.993z" />
<glyph unicode="&#xe932;" d="M737.040 38.281c-15.83 0-30.947 2.007-55.4 26.451l-40.911 40.911c-8 8.001-8 20.932 0 28.924 8.001 8.001 20.932 8.001 28.924 0l40.919-40.911c14.458-14.465 18.983-14.465 26.467-14.465 7.446 0 11.971 0 26.429 14.465l81.83 81.829c14.458 14.459 14.458 18.983 14.458 26.468 0 7.446 0 11.964-14.458 26.429-8.001 8.001-8.001 20.932 0 28.924 7.993 8.001 20.923 8.001 28.924 0 24.444-24.444 26.451-39.539 26.451-55.354 0-15.83-2.007-30.947-26.451-55.4l-81.83-81.822c-24.444-24.444-39.539-26.451-55.354-26.451z" />
<glyph unicode="&#xe933;" glyph-name="linkedin" d="M382.514 595.92h181.25v-90.283c26.108 51.925 93.064 98.579 193.644 98.579 192.815 0 238.592-103.362 238.592-293.005v-351.226h-195.207v308.035c0 107.998-26.11 168.904-92.578 168.904-92.186 0-130.496-65.638-130.496-168.854v-308.085h-195.207v635.934zM47.783-31.72h195.207v635.936h-195.207v-635.936zM270.952 811.575c0.008-16.362-3.237-32.562-9.545-47.659s-15.555-28.79-27.202-40.281c-23.6-23.456-55.545-36.585-88.819-36.505-33.215 0.022-65.086 13.119-88.722 36.456-11.605 11.531-20.82 25.239-27.117 40.337s-9.554 31.292-9.582 47.652c0 33.039 13.176 64.662 36.748 87.99 23.614 23.368 55.499 36.469 88.722 36.455 33.283 0 65.2-13.128 88.77-36.455 23.524-23.327 36.748-54.951 36.748-87.99z" />
<glyph unicode="&#xe934;" glyph-name="menu-arr" horiz-adv-x="1664" d="M24.905 888.626c31.267 28.661 79.848 26.549 108.51-4.718l647.386-706.24 647.386 706.24c28.659 31.267 77.248 33.379 108.506 4.718 31.27-28.661 33.382-77.242 4.723-108.509l-704-768c-14.547-15.869-35.086-24.905-56.614-24.905s-42.066 9.036-56.613 24.905l-704 768c-28.661 31.267-26.549 79.848 4.718 108.509z" />
<glyph unicode="&#xe935;" d="M379.386 636.598c16.465 18.283 23.67 23.905 32.65 36.494 5.734 8.036 14.687 13.371 24.559 13.371l305.952 0.003c8.881 0 17.192-4.239 22.758-11.157 10.258-12.748 21.714-25.492 33.618-38.711 45.283-50.285 96.608-107.282 113.877-199.307 8.264-44.032 7.986-85.235-0.821-122.462-8.223-34.757-23.886-66.214-46.547-93.501-30.083-36.219-71.415-64.324-122.844-83.535-46.325-17.304-99.384-26.45-153.434-26.45-54.052 0-107.108 9.146-153.436 26.45-51.429 19.211-92.759 47.314-122.842 83.535-22.663 27.287-38.324 58.745-46.547 93.501-8.809 37.227-9.084 78.429-0.822 122.462 17.269 92.025 68.594 149.020 113.876 199.305l0.003 0.003z" />
<glyph unicode="&#xe936;" d="M630.77 720.977h1.18c0.003 0-0.917 2.309-1.18 0z" />
<glyph unicode="&#xe937;" d="M345.805 720.977h1.18c-0.262 2.309-1.18 0-1.18 0z" />
<glyph unicode="&#xe938;" d="M915.396 648.324c-6.622 10.571-16.963 17.931-29.118 20.724l-64.025 14.712 29.561 8.276c24.495 6.854 39.251 33.015 32.385 57.554-6.857 24.493-33.013 39.247-57.557 32.384l-137.837-38.578c-3.588 6.53-8.691 12.118-14.838 16.276 27.973 52.060 68.276 140.402 68.276 178.409 0 9.269-8.762 16.442-17.854 14.609-54.703-11.051-105.703-16.15-155.857-15.603-51.552 0.566-115.712 6.969-156.024 15.57-12.462 2.659-22.463-11.287-15.892-22.243 9.825-16.373 15.843-33.684 19.15-51.132-50.595-1.55-103.065 4.58-142.776 24.439-10.697 5.35-23.325-4.010-21.368-15.781 12.491-74.933 37.689-118.867 62.952-152.060h-0.56c-25.749 0-46.699-20.95-46.699-46.697 0-23.681 17.725-43.287 40.598-46.288-16.674-27.929-40.487-54.426-65.508-82.233-53.207-59.13-113.515-126.151-133.806-234.367-9.709-51.779-9.386-100.229 0.965-144.004 9.662-40.869 28.064-77.86 54.693-109.947 35.346-42.593 83.91-75.64 144.339-98.231 54.435-20.347 116.774-31.102 180.284-31.102s125.852 10.755 180.284 31.102c60.429 22.591 108.993 55.64 144.339 98.231 26.628 32.086 45.031 69.077 54.693 109.947 10.348 43.775 10.675 92.227 0.965 144.004-20.291 108.213-80.597 175.234-133.805 234.366-18.063 20.076-35.248 39.215-49.656 58.642l179.663-41.278c19.034-4.374 39.316 3.953 49.83 20.4 9.623 15.060 9.68 34.775 0.202 49.901zM568.202 907.282c45.889-0.501 92.333 3.511 141.389 12.254-8.996-36.775-37.88-102.183-65.278-152.009-18.986-1.431-34.834-14.256-40.709-31.647h-41.377c-0.936 2.014-1.971 4.222-3.125 6.674-12.794 27.198-39.42 83.792-39.42 131.939 0 9.256-8.74 16.432-17.827 14.613-17.342-3.47-36.424-6.277-56.278-8.036-2.082 12.435-5.311 24.89-10.004 37.14 40.043-6.198 90.485-10.465 132.629-10.928zM664.742 720.979v-63.589c0-9.311-7.576-16.89-16.89-16.89-9.316 0-16.892 7.576-16.892 16.89v63.589c0 9.316 7.576 16.892 16.892 16.892 9.314 0 16.89-7.579 16.89-16.892zM286.362 865.982c37.258-12.717 83.093-18.357 132.591-16.617l29.537 1.866c13.932 1.278 28.069 3.119 42.308 5.527 4.649-46.107 25.711-93.485 38.509-120.878h-176.7c-0.332 0.523-0.692 1.037-1.097 1.525-24.927 29.991-50.222 64.679-65.149 128.577zM713.199 540.727c50.587-56.215 107.917-119.93 126.669-219.92 17.255-92.027 0.666-169.214-49.301-229.419-61.613-74.24-174.393-118.564-301.686-118.564s-240.073 44.322-301.686 118.561c-49.968 60.206-66.554 137.394-49.301 229.421 18.75 99.991 76.084 163.708 126.67 219.922 30.246 33.615 58.821 65.41 77.134 101.759h36.4c8.233 0 14.903 6.673 14.903 14.903s-6.671 14.903-14.903 14.903h-64.087c-9.314 0-16.892 7.578-16.892 16.892s7.578 16.892 16.892 16.892h287.141v-33.781h-152.016c-8.234 0-14.904-6.674-14.904-14.904 0-8.228 6.671-14.903 14.904-14.903h154.468c6.235-18.459 23.706-31.794 44.245-31.794 2.373 0 4.701 0.182 6.981 0.523 16.632-24.060 36.907-46.641 58.369-70.489zM694.55 714.052l140.124 39.216c8.874 2.488 18.342-2.857 20.819-11.713 2.481-8.875-2.855-18.339-11.713-20.817l-80.081-22.413c-0.652-0.184-1.275-0.421-1.881-0.683l-67.268 15.455v0.954zM892.283 619.757c-2.087-9.079-11.153-14.769-20.246-12.679l-178.424 40.994c0.612 3.013 0.936 6.13 0.936 9.321v25.127l185.052-42.518c8.969-2.061 14.743-11.267 12.682-20.244z" />
<glyph unicode="&#xe939;" d="M584.264 340.441c21.365 0 38.751 17.383 38.751 38.751v23.844c0 55.762-41.591 101.988-95.383 109.283v25.843c0 21.365-17.383 38.749-38.751 38.749-21.365 0-38.749-17.381-38.749-38.749v-27.816c-55.227-12.319-95.383-61.415-95.383-119.231 0-67.386 54.822-122.209 122.208-122.209h23.845c24.652 0 44.711-20.055 44.711-44.711s-20.056-44.711-44.711-44.711h-35.768c-18.081 0-32.789 14.709-32.789 32.789 0 21.365-17.383 38.749-38.749 38.749s-38.751-17.383-38.751-38.749c0-55.762 41.591-101.988 95.383-109.283v-25.843c0-21.365 17.383-38.749 38.749-38.749s38.751 17.383 38.751 38.749v27.816c55.227 12.319 95.383 61.415 95.383 119.231 0 67.386-54.823 122.209-122.209 122.209h-23.845c-24.65 0-44.711 20.055-44.711 44.711s20.058 44.711 44.711 44.711h35.77c18.081 0 32.789-14.709 32.789-32.789v-23.844c0-21.367 17.384-38.751 38.749-38.751zM512.727 465.63h-35.768c-41.089 0-74.518-33.427-74.518-74.516s33.429-74.518 74.518-74.518h23.845c50.952 0 92.403-41.452 92.403-92.403 0-47.143-35.308-86.614-82.123-91.815-7.548-0.839-13.259-7.217-13.259-14.812v-40.421c0-4.929-4.012-8.941-8.941-8.941-4.931 0-8.942 4.012-8.942 8.941v39.742c0 8.231-6.671 14.903-14.903 14.903-44.378 0-80.478 36.102-80.478 80.478 0 4.931 4.012 8.942 8.941 8.942s8.942-4.012 8.942-8.942c0-34.514 28.080-62.594 62.594-62.594h35.768c41.090 0 74.518 33.429 74.518 74.518s-33.427 74.516-74.518 74.516h-23.844c-50.953 0-92.403 41.452-92.403 92.403 0 47.145 35.307 86.614 82.123 91.816 7.547 0.837 13.257 7.217 13.257 14.812v40.421c0 4.929 4.012 8.941 8.942 8.941 4.929 0 8.941-4.012 8.941-8.941v-39.742c0-8.231 6.671-14.903 14.903-14.903 44.378 0 80.479-36.104 80.479-80.479v-23.844c0-4.931-4.013-8.942-8.942-8.942s-8.941 4.012-8.941 8.942v23.844c0 34.514-28.080 62.594-62.596 62.594z" />
<glyph unicode="&#xe93a;" d="M436.060 195.413h559.787c15.081 0 27.307 12.225 27.307 27.307v602.655c0 7.498-3.083 14.666-8.527 19.823l-113.282 107.319c-5.072 4.805-11.792 7.483-18.78 7.483h-446.505c-15.081 0-27.307-12.226-27.307-27.307v-709.973c0-15.081 12.225-27.307 27.307-27.307z" />
<glyph unicode="&#xe93b;" d="M947.874 771.11c-0.568 0.534-112.831 107.596-112.831 107.596-4.291 4.118-8.73 8.374-17.018 8.374h-451.958c-13.201 0-23.941-10.739-23.941-23.94v-73.514l-159.292-27.307c-12.769-2.239-21.355-14.459-19.143-27.214l8.084-47.137c-51.775-17.423-104.932-35.384-156.249-53.817-12.126-4.433-18.489-17.917-14.162-30.115l102.079-283.763c2.053-5.711 7.435-9.267 13.175-9.267 1.572 0 3.173 0.266 4.738 0.83 7.276 2.617 11.053 10.636 8.436 17.913l-100.569 279.567c48.347 17.31 98.414 34.251 147.345 50.721l48.106-280.457 55.353-322.993c2-11.402 12.022-19.515 23.334-19.515 1.281 0 2.58 0.105 3.883 0.319l267.076 45.81-315.142-113.289-107.908 300.14c-2.616 7.276-10.633 11.052-17.911 8.438-7.276-2.616-11.053-10.635-8.437-17.91l109.439-304.405c3.501-9.572 12.568-15.524 22.154-15.524 2.649 0 5.338 0.456 7.96 1.413l468.095 168.262 62.083 10.641h137.145c13.201 0 23.942 10.763 23.942 23.994v610.371c0.001 8.38-4.545 12.655-7.864 15.776zM910.782 767.794l-71.792-0.007c-3.355-0.022-11.208-0.081-13.2 1.898-0.459 0.457-0.997 1.985-0.997 4.82l-0.162 75.442 86.151-82.153zM927.741 148.972h-557.616v272.845c0 7.732-6.268 14-13.999 14s-14-6.268-14-14v-276.85c0-13.23 10.74-23.994 23.941-23.994h262.85l-322.051-55.233-54.597 318.575-60.234 351.176 150.088 25.728v-274.442c0-7.732 6.268-14 14-14s14 6.268 14 14v372.305h426.486l0.183-84.609c0-10.255 3.12-18.551 9.271-24.658 9.451-9.384 22.811-10.038 31.104-10.038 0.714 0 1.389 0.005 2.022 0.010l88.551 0.005v-590.821z" />
<glyph unicode="&#xe93c;" d="M437.61 669.696c0-7.731 6.268-13.999 14-13.999h400.28c7.732 0 14 6.268 14 13.999s-6.268 14-14 14h-400.28c-7.732 0-14-6.268-14-14z" />
<glyph unicode="&#xe93d;" d="M851.89 584.237h-400.28c-7.732 0-14-6.268-14-14s6.268-14 14-14h400.28c7.732 0 14 6.268 14 14s-6.268 14-14 14z" />
<glyph unicode="&#xe93e;" d="M851.89 484.777h-400.28c-7.732 0-14-6.268-14-14s6.268-14 14-14h400.28c7.732 0 14 6.268 14 14s-6.268 14-14 14z" />
<glyph unicode="&#xe93f;" d="M851.89 385.316h-400.28c-7.732 0-14-6.268-14-14s6.268-13.999 14-13.999h400.28c7.732 0 14 6.268 14 13.999s-6.268 14-14 14z" />
<glyph unicode="&#xe940;" d="M851.89 285.853h-400.28c-7.732 0-14-6.268-14-14s6.268-14 14-14h400.28c7.732 0 14 6.268 14 14s-6.268 14-14 14z" />
<glyph unicode="&#xe941;" d="M315.619 139.397v546.541c0 9.429 3.167 18.585 8.993 26l55.522 70.664c7.979 10.153 20.177 16.082 33.089 16.082h267.696c12.914 0 25.112-5.929 33.091-16.082l55.522-70.664c5.826-7.415 8.992-16.571 8.992-26v-546.541c0-23.242-18.84-42.082-42.082-42.082h-378.74c-23.241 0-42.082 18.84-42.082 42.082z" />
<glyph unicode="&#xe942;" d="M556.334 736.308c20.357 9.543 34.491 30.233 34.491 54.164v102.737c0 32.96-26.815 59.778-59.778 59.778h-234.294c-8.172 0-14.795-6.624-14.795-14.795s6.622-14.795 14.795-14.795h234.294c16.645 0 30.188-13.542 30.188-30.189v-102.737c0-16.648-13.541-30.191-30.188-30.191h-333.943c-16.645 0-30.19 13.542-30.19 30.191v102.737c0.003 16.645 13.545 30.189 30.19 30.189h30.821c8.172 0 14.795 6.624 14.795 14.795s-6.622 14.795-14.795 14.795h-30.821c-32.963 0-59.778-26.818-59.778-59.778v-102.737c0-23.931 14.133-44.621 34.491-54.164l-72.020-96.671c-10.394-13.953-16.118-31.219-16.118-48.618v-148.584c0-8.171 6.622-14.795 14.795-14.795s14.795 6.624 14.795 14.795v67.828h501.615v-417.706h-78.213c-8.172 0-14.793-6.624-14.793-14.795s6.621-14.795 14.793-14.795h78.213v-8.52c0-45.116-36.704-81.82-81.822-81.82h-337.972c-45.115 0-81.822 36.704-81.822 81.82v8.52h354.375c8.174 0 14.795 6.624 14.795 14.795s-6.621 14.795-14.795 14.795h-354.375v279.83c0 8.17-6.622 14.793-14.795 14.793s-14.795-6.624-14.795-14.793v-317.941c0-61.433 49.978-111.413 111.411-111.413h337.973c61.433 0 111.411 49.978 111.411 111.413v536.572c0 17.398-5.725 34.665-16.119 48.616l-72.021 96.674zM113.267 539.853v51.166c0 11.073 3.643 22.059 10.258 30.94l81.003 108.735h319.092l81.003-108.735c6.615-8.881 10.257-19.866 10.257-30.94v-51.166h-501.613z" />
<glyph unicode="&#xe943;" d="M378.87 804.331v75.018c0 8.171-6.622 14.795-14.795 14.795s-14.795-6.624-14.795-14.795v-75.018c0-8.17 6.622-14.795 14.795-14.795s14.795 6.622 14.795 14.795z" />
<glyph unicode="&#xe944;" d="M195.374 879.349v-75.018c0-8.17 6.622-14.795 14.795-14.795s14.795 6.625 14.795 14.795v75.018c0 8.171-6.622 14.795-14.795 14.795s-14.795-6.624-14.795-14.795z" />
<glyph unicode="&#xe945;" d="M287.124 789.535c8.172 0 14.793 6.624 14.793 14.795v75.020c0 8.171-6.621 14.795-14.793 14.795-8.174 0-14.795-6.624-14.795-14.795v-75.018c0-8.172 6.621-14.796 14.795-14.796z" />
<glyph unicode="&#xe946;" d="M455.524 804.331v75.018c0 8.171-6.622 14.795-14.795 14.795s-14.795-6.624-14.795-14.795v-75.018c0-8.17 6.622-14.795 14.795-14.795s14.795 6.622 14.795 14.795z" />
<glyph unicode="&#xe947;" d="M532.476 804.331v75.018c0 8.171-6.622 14.795-14.795 14.795s-14.795-6.624-14.795-14.795v-75.018c0-8.17 6.622-14.795 14.795-14.795s14.795 6.622 14.795 14.795z" />
<glyph unicode="&#xe948;" d="M735.003 760.281c-37.188 0-73.62-10.052-105.365-29.070-7.008-4.197-9.286-13.285-5.086-20.293 4.197-7.009 13.283-9.288 20.293-5.089 27.151 16.265 58.326 24.862 90.158 24.862 96.901 0 175.738-78.837 175.738-175.744v-188.506h-212.014c-8.172 0-14.795-6.624-14.795-14.795s6.622-14.795 14.795-14.795h212.013v-188.506c0-96.904-78.837-175.742-175.739-175.742-17.447 0-34.672 2.55-51.199 7.585-7.808 2.38-16.081-2.028-18.461-9.843-2.38-7.816 2.026-16.084 9.843-18.464 19.321-5.884 39.448-8.867 59.817-8.867 113.219 0 205.329 92.111 205.329 205.332v406.604c0.001 113.221-92.11 205.332-205.326 205.332z" />
<glyph unicode="&#xe949;" d="M393.663 414.007h-59.177c-8.172 0-14.795-6.625-14.795-14.795v-53.416h-53.414c-8.172 0-14.795-6.624-14.795-14.795v-59.18c0-8.171 6.622-14.795 14.795-14.795h53.414v-53.416c0-8.17 6.622-14.793 14.795-14.793h59.177c8.174 0 14.795 6.624 14.795 14.793v53.416h53.415c8.172 0 14.795 6.624 14.795 14.795v59.18c0 8.171-6.622 14.795-14.795 14.795h-53.415v53.416c0 8.17-6.624 14.795-14.795 14.795zM447.078 316.207v-29.589h-53.415c-8.172 0-14.793-6.624-14.793-14.793v-53.416h-29.589v53.416c0 8.17-6.622 14.793-14.795 14.793h-53.414v29.589h53.414c8.172 0 14.795 6.624 14.795 14.795v53.416h29.589v-53.416c0-8.171 6.621-14.795 14.793-14.795h53.415z" />
<glyph unicode="&#xe94a;" d="M611.828 875.613l-175.746-225.314c-16.617-21.306-19.106-50.407-6.347-74.224l57.579-107.482c14.164-26.438 43.924-40.535 73.354-34.745l274.465 53.992c45.578 8.966 69.086 59.848 46.371 100.366l-156.299 278.804c-23.859 42.559-83.369 47.075-113.376 8.603z" />
<glyph unicode="&#xe94b;" d="M289.799 279.99c8.925 5.147 11.981 16.574 6.832 25.499-5.154 8.917-16.574 11.979-25.499 6.832-8.924-5.155-11.988-16.582-6.832-25.499 5.149-8.925 16.574-11.988 25.499-6.832z" />
<glyph unicode="&#xe94c;" d="M213.303 151.149l94.005-162.83c20.286-35.175 65.917-48.198 102.003-27.337 35.708 20.636 47.979 66.26 27.323 101.996l-56.001 97.008 48.497 28c8.925 5.162 11.988 16.574 6.832 25.499l-24.273 42.044c2.895 0.561 21.926 4.294 357.538 70.13 41.49 2.254 66.347 47.63 45.391 83.905l-62.037 107.45 39.645 60.047c3.893 5.906 4.126 13.496 0.59 19.621l-37.334 64.662c-3.536 6.125-10.251 9.713-17.288 9.298l-71.815-4.31-68.87 119.292c-9.975 17.281-27.847 27.745-47.798 27.993-0.24 0.007-0.474 0.007-0.714 0.007-19.28 0-36.779-9.596-47.148-25.82l-243.849-310.639-158.528-91.525c-62.351-35.985-83.949-115.974-47.826-178.493 33.002-57.167 102.579-79.655 161.656-56.001zM404.309 44.305c10.31-17.835 4.207-40.658-13.679-50.991-17.945-10.375-40.798-4.003-50.991 13.664l-93.333 161.679 64.662 37.334c108.018-187.119 91.606-158.689 93.341-161.686zM361.966 192.326l-18.667 32.331 32.331 18.667 18.667-32.332-32.331-18.665zM728.92 632.691l25.798-44.683-23.006-34.839-44.465 77.021 41.673 2.501zM533.073 767.339c5.009 8.196 12.957 9.041 16.181 8.954 3.187-0.035 11.127-1.028 15.917-9.325l217.117-376.069c7.074-12.242-1.524-27.634-15.705-27.985-2.545-0.057-3.719-0.517-10.237-1.735l-229.667 397.797c4.821 6.199 5.439 6.797 6.395 8.364zM501.835 727.329l215.783-373.749-325.661-63.874-99.021 171.508 208.899 266.116zM83.979 225.817c-8.196 14.182-12.527 30.282-12.527 46.572 0 33.294 17.894 64.298 46.689 80.923l145.49 83.999 93.333-161.655-145.49-84.008c-44.574-25.726-101.763-10.398-127.495 34.169z" />
<glyph unicode="&#xe94d;" d="M231.969 268.154c-5.155 8.925-16.574 11.988-25.499 6.832l-32.331-18.667c-8.91-5.147-20.351-2.078-25.499 6.832-5.155 8.925-16.574 11.988-25.499 6.832-8.925-5.154-11.987-16.574-6.832-25.498 15.363-26.616 49.634-36 76.497-20.498l32.331 18.667c8.925 5.155 11.988 16.567 6.832 25.499z" />
<glyph unicode="&#xe94e;" d="M962.122 773.699l-104.015-57.882c-9.004-5.016-12.25-16.384-7.234-25.39 5.003-8.998 16.364-12.257 25.39-7.234l104.008 57.882c9.013 5.016 12.25 16.384 7.234 25.39-5.009 9.013-16.377 12.25-25.383 7.234z" />
<glyph unicode="&#xe94f;" d="M951.213 580.369l-72.122 19.324c-9.96 2.668-20.197-3.239-22.867-13.199s3.245-20.191 13.206-22.858l72.129-19.324c10.019-2.691 20.206 3.311 22.858 13.197 2.669 9.961-3.244 20.199-13.204 22.86z" />
<glyph unicode="&#xe950;" d="M769.97 841.521l-19.344-72.13c-2.669-9.96 3.237-20.191 13.197-22.867 9.953-2.661 20.191 3.23 22.867 13.199l19.339 72.129c2.668 9.96-3.239 20.198-13.199 22.867-9.953 2.669-20.191-3.237-22.86-13.198z" />
<glyph unicode="&#xe951;" d="M918.788 160.953l-580.542-0.001c-22.953 0-31.362 32.128-11.379 44.38 55.446 33.986 224.172 137.414 224.145 231.564-0.008 35.304-24.133 67.971-71.701 97.096-52.509 32.151-78.747 68.691-77.983 108.603 1.117 58.303 59.562 120.337 173.707 184.376 38.418 25.075 78.161 46.077 108.273 60.796 12.367 6.044 25.499 9.109 39.030 9.109h78.213c16.925 0 22.172-23.831 6.84-31.34-97.265-47.62-145.156-90.059-142.344-126.132 3.517-45.133 86.943-80.162 156.309-101.6 215.476-66.592 237.916-247.763 140.212-448.933-8.366-17.22-24.758-27.919-42.779-27.919z" />
<glyph unicode="&#xe952;" d="M461.503 829.986c-4.047 7.106-13.089 9.585-20.192 5.536-0.173-0.096-4.291-2.45-10.838-6.745-6.838-4.483-8.746-13.663-4.262-20.499 4.485-6.841 13.664-8.746 20.5-4.262 5.642 3.699 9.167 5.725 9.265 5.781 7.095 4.051 9.572 13.089 5.527 20.189z" />
<glyph unicode="&#xe953;" d="M584.341 134.411c-4.98-5.848-10.239-11.758-15.624-17.565-5.563-5.994-5.211-15.363 0.783-20.923 5.978-5.549 15.352-5.227 20.922 0.783 5.671 6.113 11.211 12.338 16.46 18.502 5.302 6.227 4.555 15.57-1.671 20.873-6.221 5.305-15.565 4.558-20.87-1.669z" />
<glyph unicode="&#xe954;" d="M659.971 224.859c-7.377 3.528-16.216 0.41-19.746-6.966-3.201-6.694-6.81-13.543-10.728-20.355-4.075-7.091-1.633-16.14 5.457-20.215 7.075-4.069 16.13-1.648 20.216 5.457 4.287 7.456 8.245 14.97 11.77 22.333 3.525 7.376 0.41 16.216-6.969 19.746z" />
<glyph unicode="&#xe955;" d="M690.385 287.17c0.376 4.767 0.571 9.564 0.571 14.257 0 4.019-0.14 8.067-0.418 12.038-0.572 8.157-7.669 14.311-15.805 13.733-8.157-0.572-14.307-7.648-13.733-15.805 0.229-3.282 0.346-6.634 0.345-9.965 0-3.918-0.16-7.927-0.477-11.919-0.647-8.151 5.437-15.284 13.59-15.931 8.125-0.647 15.277 5.426 15.927 13.591z" />
<glyph unicode="&#xe956;" d="M646.453 416.347c-5.325 6.207-14.673 6.921-20.878 1.598-6.207-5.323-6.923-14.673-1.599-20.878 4.952-5.774 9.473-11.737 13.434-17.728 4.511-6.822 13.696-8.694 20.516-4.182s8.693 13.695 4.182 20.516c-4.636 7.012-9.905 13.968-15.655 20.674z" />
<glyph unicode="&#xe957;" d="M582.136 470.919c-6.788 4.377-13.981 8.717-21.381 12.901-7.118 4.023-16.153 1.518-20.177-5.603-4.026-7.119-1.518-16.151 5.601-20.176 6.901-3.902 13.602-7.945 19.906-12.010 6.827-4.402 16.008-2.497 20.466 4.42 4.434 6.872 2.456 16.035-4.416 20.467z" />
<glyph unicode="&#xe958;" d="M467.314 530.745c-7.147 3.978-16.16 1.407-20.136-5.743-3.975-7.144-1.404-16.161 5.743-20.136 6.965-3.872 14.297-7.766 21.801-11.567 7.245-3.675 16.182-0.826 19.901 6.512 3.696 7.293 0.781 16.203-6.513 19.901-7.167 3.634-14.163 7.346-20.796 11.034z" />
<glyph unicode="&#xe959;" d="M384.074 551.522c6.207-5.291 15.556-4.573 20.871 1.666 5.305 6.223 4.559 15.568-1.665 20.871-5.99 5.105-11.567 10.317-16.576 15.488-5.69 5.87-15.061 6.022-20.936 0.334-5.875-5.69-6.022-15.064-0.334-20.936 5.663-5.848 11.936-11.71 18.64-17.423z" />
<glyph unicode="&#xe95a;" d="M334.586 686.612c-8.151 0.192-14.983-6.221-15.204-14.394-0.031-1.058-0.043-2.115-0.042-3.163 0-8.101 0.854-16.261 2.542-24.249 1.692-8.028 9.572-13.116 17.541-11.431 8.003 1.69 13.12 9.541 11.431 17.543-1.262 5.985-1.901 12.086-1.901 18.153 0 0.781 0.010 1.558 0.031 2.336 0.222 8.175-6.224 14.983-14.398 15.206z" />
<glyph unicode="&#xe95b;" d="M353.478 733.897c6.622-4.795 15.879-3.315 20.675 3.309 4.214 5.817 8.993 11.699 14.204 17.471 5.478 6.072 4.999 15.433-1.070 20.911-6.072 5.482-15.434 4.999-20.911-1.069-5.921-6.562-11.376-13.271-16.209-19.947-4.796-6.622-3.313-15.878 3.31-20.675z" />
<glyph unicode="&#xe95c;" d="M511.543 62.687c-5.469-4.522-8.722-7-8.752-7.022-6.513-4.943-7.788-14.229-2.845-20.744 4.96-6.535 14.248-7.774 20.747-2.845 0.15 0.115 3.721 2.829 9.721 7.791 6.3 5.211 7.185 14.545 1.972 20.846-5.206 6.298-14.542 7.183-20.843 1.974z" />
<glyph unicode="&#xe95d;" d="M570.308-56.986h288.203c24.732 0 47.227 14.682 58.709 38.314 134.088 276.083 103.292 524.72-192.424 616.111-95.198 29.421-209.691 77.494-214.518 139.435-3.858 49.505 61.866 107.747 195.351 173.101 21.042 10.306 13.842 43.011-9.386 43.011-31.379 0-74.519 0-107.338 0-18.569 0-36.593-4.207-53.565-12.502-41.326-20.2-95.867-49.023-148.592-83.436-156.651-87.887-236.861-173.021-238.393-253.036-1.049-54.774 34.958-104.921 107.021-149.044 65.284-39.971 98.391-84.804 98.404-133.255 0.035-129.212-231.522-271.154-307.615-317.798-27.425-16.813-15.883-60.904 15.616-60.904h439.486c8.172 0 14.793 6.624 14.793 14.793s-6.622 14.793-14.793 14.793h-326.958c251.96 165.638 406.5 374.105 149.34 531.571-160.314 98.16-93.624 209.966 62.033 316.593 56.528 38.653 117.59 71.111 162.652 93.137 12.893 6.3 26.543 9.495 40.571 9.495h39.268c-78.384-42.293-193.344-117.583-188.594-206.514 1.821-34.109 21.145-66.397 57.432-95.967 38.347-31.25 97.189-60.558 174.88-87.109 134.988-46.129 208.756-122.578 219.251-227.226 0.818-8.129 8.059-14.061 16.197-13.243 8.132 0.815 14.061 8.064 13.246 16.196-11.756 117.19-92.209 202.067-239.125 252.274-135.918 46.45-209.345 100.619-212.337 156.654-1.111 20.786 7.102 40.33 18.637 57.634-44.189-107.542 116.911-172.501 228.293-206.921 112.441-34.751 187.42-93.772 222.859-175.425 59.827-137.854-4.587-309.465-48.31-399.49-6.488-13.358-18.785-21.655-32.093-21.655h-47.906c51.168 77.695 97.448 172.58 108.787 264.603 1.002 8.109-4.764 15.492-12.873 16.493-8.099 0.982-15.493-4.765-16.492-12.874-5.715-46.359-28.347-142.278-115.128-268.222h-204.588c-8.174 0-14.795-6.624-14.795-14.795s6.622-14.795 14.795-14.795zM119.165-27.397h-57.383c-0.17 0-0.249 0.018-0.249 0.018h-0.007c-0.32 0.177-1.138 1.369-1.184 3.145-0.050 2.104 0.953 2.721 1.283 2.925 138.132 84.675 321.776 212.362 321.74 343.032-0.014 59.445-37.88 112.766-112.543 158.482-95.036 58.188-124.274 125.68-53.764 211.362-41.925-86.667 3.027-156.512 84.508-208.485 5.893-3.758 7.712-4.743 13.845-8.652 240.843-153.513 46.37-352.653-196.246-501.826z" />
<glyph unicode="&#xe95e;" d="M596.167 349.808c0-100.713-81.644-182.356-182.356-182.356s-182.356 81.644-182.356 182.356c0 100.713 81.644 182.356 182.356 182.356s182.356-81.644 182.356-182.356z" />
<glyph unicode="&#xe95f;" d="M974.907 784.658c0-69.725-56.522-126.247-126.247-126.247-69.723 0-126.247 56.522-126.247 126.247s56.523 126.247 126.247 126.247c69.725 0 126.247-56.523 126.247-126.247z" />
<glyph unicode="&#xe960;" d="M703.819 354.704h-38.342c-2.935 15.949-7.132 31.644-12.54 46.906l33.175 19.153c3.402 1.96 5.879 5.193 6.894 8.983 1.018 3.79 0.484 7.829-1.477 11.226l-41.166 71.291c-4.088 7.075-13.134 9.498-20.208 5.415l-33.246-19.191c-10.519 12.312-22.003 23.795-34.317 34.312l19.191 33.235c1.962 3.399 2.494 7.439 1.48 11.228-1.016 3.79-3.496 7.024-6.894 8.983l-71.304 41.161c-7.075 4.089-16.122 1.664-20.209-5.413l-19.156-33.175c-15.27 5.413-30.971 9.609-46.92 12.542v38.331c0 8.172-6.624 14.795-14.795 14.795h-82.334c-8.171 0-14.795-6.622-14.795-14.795v-38.331c-15.946-2.933-31.65-7.129-46.92-12.542l-19.156 33.175c-4.088 7.074-13.138 9.495-20.209 5.413l-71.304-41.161c-3.399-1.96-5.878-5.193-6.894-8.983-1.016-3.792-0.483-7.831 1.479-11.228l19.191-33.235c-12.315-10.518-23.797-21.998-34.317-34.312l-33.246 19.191c-7.076 4.089-16.124 1.664-20.209-5.413l-41.168-71.291c-1.963-3.4-2.493-7.439-1.479-11.228 1.016-3.79 3.495-7.024 6.894-8.983l33.179-19.153c-5.413-15.266-9.61-30.961-12.542-46.906h-38.342c-8.17 0-14.794-6.622-14.794-14.795v-82.318c0-8.172 6.624-14.795 14.794-14.795h38.342c2.933-15.945 7.131-31.64 12.542-46.906l-33.179-19.152c-3.399-1.961-5.878-5.194-6.894-8.983-1.016-3.792-0.483-7.83 1.479-11.229l41.168-71.291c4.087-7.074 13.132-9.494 20.209-5.413l33.246 19.192c10.52-12.313 22.004-23.796 34.317-34.314l-19.191-33.235c-1.963-3.4-2.493-7.439-1.479-11.228 1.016-3.789 3.495-7.022 6.894-8.983l71.304-41.161c7.071-4.081 16.12-1.662 20.209 5.415l19.156 33.172c15.267-5.412 30.97-9.607 46.92-12.54v-38.331c0-8.172 6.624-14.795 14.795-14.795h82.334c8.171 0 14.795 6.622 14.795 14.795v38.331c15.951 2.933 31.653 7.129 46.92 12.54l19.156-33.172c4.088-7.077 13.138-9.498 20.209-5.415l71.304 41.161c3.399 1.961 5.879 5.194 6.894 8.983 1.016 3.792 0.483 7.829-1.48 11.228l-19.191 33.235c12.315 10.518 23.797 21.998 34.317 34.314l33.246-19.192c7.073-4.085 16.12-1.661 20.208 5.415l41.166 71.293c1.961 3.399 2.495 7.436 1.477 11.226-1.016 3.789-3.493 7.022-6.894 8.983l-33.175 19.152c5.409 15.262 9.606 30.958 12.54 46.906h38.342c8.172 0 14.795 6.622 14.795 14.795v82.318c0 8.172-6.622 14.795-14.795 14.795zM689.024 272.385h-36.13c-7.373 0-13.622-5.43-14.65-12.733-3.127-22.214-8.951-44.004-17.315-64.762-2.755-6.834-0.058-14.657 6.326-18.341l31.252-18.042-26.372-45.668-31.313 18.076c-6.38 3.686-14.49 2.113-19.034-3.679-13.835-17.631-29.791-33.582-47.425-47.413-5.795-4.548-7.363-12.663-3.681-19.041l18.076-31.301-45.677-26.367-18.046 31.252c-3.686 6.38-11.508 9.076-18.339 6.324-20.765-8.363-42.559-14.189-64.772-17.313-7.303-1.028-12.735-7.276-12.735-14.65v-36.125h-52.746v36.122c0 7.374-5.43 13.623-12.735 14.65-22.215 3.125-44.008 8.949-64.772 17.314-6.837 2.754-14.654 0.053-18.339-6.324l-18.045-31.253-45.679 26.369 18.077 31.301c3.684 6.377 2.113 14.495-3.681 19.039-17.631 13.832-33.587 29.784-47.425 47.414-4.545 5.792-12.658 7.36-19.034 3.678l-31.313-18.074-26.372 45.668 31.252 18.042c6.383 3.682 9.082 11.504 6.326 18.341-8.366 20.766-14.193 42.555-17.315 64.76-1.028 7.303-7.275 12.733-14.65 12.733h-36.13v52.73h36.13c7.374 0 13.623 5.43 14.65 12.733 3.123 22.205 8.95 43.996 17.315 64.762 2.754 6.837 0.057 14.657-6.326 18.341l-31.252 18.041 26.372 45.668 31.313-18.074c6.375-3.682 14.489-2.113 19.034 3.679 13.836 17.631 29.793 33.582 47.425 47.413 5.796 4.548 7.364 12.663 3.681 19.039l-18.077 31.302 45.679 26.367 18.045-31.25c3.685-6.382 11.504-9.080 18.337-6.326 20.775 8.366 42.568 14.192 64.774 17.314 7.303 1.028 12.735 7.275 12.735 14.65v36.123h52.746v-36.123c0-7.373 5.43-13.622 12.735-14.65 22.207-3.122 44-8.948 64.774-17.314 6.833-2.755 14.654-0.056 18.339 6.326l18.045 31.25 45.677-26.367-18.074-31.302c-3.684-6.377-2.115-14.495 3.681-19.039 17.631-13.831 33.587-29.784 47.425-47.413 4.545-5.795 12.658-7.364 19.034-3.679l31.312 18.074 26.37-45.668-31.252-18.041c-6.384-3.684-9.081-11.507-6.326-18.341 8.365-20.758 14.189-42.548 17.315-64.762 1.028-7.303 7.275-12.733 14.65-12.733h36.13v-52.728z" />
<glyph unicode="&#xe961;" d="M1002.196 796.091h-27.327c-2.185 6.147-4.696 12.188-7.513 18.081l19.297 19.254c2.782 2.775 4.346 6.543 4.346 10.475s-1.564 7.697-4.346 10.475l-68.518 68.361c-5.775 5.76-15.122 5.76-20.898 0l-19.331-19.286c-5.921 2.821-11.991 5.332-18.171 7.52v27.222c0 8.173-6.622 14.795-14.795 14.795h-96.9c-8.172 0-14.795-6.622-14.795-14.795v-27.226c-6.18-2.186-12.25-4.699-18.171-7.52l-19.333 19.286c-5.771 5.758-15.122 5.76-20.898 0l-68.52-68.361c-2.782-2.775-4.346-6.543-4.346-10.474s1.563-7.697 4.346-10.475l19.3-19.255c-2.82-5.894-5.329-11.935-7.514-18.081h-27.325c-8.171 0-14.795-6.622-14.795-14.795v-96.675c0-8.172 6.624-14.793 14.795-14.793h27.325c2.184-6.147 4.695-12.187 7.514-18.081l-19.3-19.254c-2.782-2.776-4.346-6.544-4.346-10.476 0-3.93 1.563-7.697 4.346-10.474l68.52-68.36c5.776-5.761 15.123-5.761 20.898 0l19.333 19.285c5.921-2.82 11.991-5.332 18.171-7.519v-27.226c0-8.172 6.622-14.795 14.795-14.795h96.9c8.172 0 14.795 6.622 14.795 14.795v27.226c6.18 2.185 12.25 4.699 18.171 7.519l19.331-19.285c5.775-5.761 15.124-5.762 20.898 0l68.518 68.36c2.782 2.776 4.346 6.544 4.346 10.474 0 3.932-1.564 7.698-4.346 10.476l-19.297 19.254c2.817 5.892 5.326 11.935 7.513 18.081h27.327c8.172 0 14.795 6.621 14.795 14.793v96.68c0 8.171-6.624 14.795-14.795 14.795zM987.401 699.416h-23.302c-6.589 0-12.379-4.356-14.213-10.683-3.275-11.327-7.843-22.316-13.572-32.66-3.2-5.778-2.18-12.977 2.495-17.641l16.45-16.412-47.571-47.463-16.499 16.461c-4.657 4.649-11.829 5.661-17.592 2.481-10.368-5.715-21.388-10.274-32.751-13.546-6.336-1.824-10.699-7.621-10.699-14.217v-23.215h-67.312v23.215c0 6.596-4.364 12.393-10.699 14.217-11.365 3.273-22.384 7.831-32.751 13.546-5.764 3.181-12.935 2.17-17.592-2.481l-16.499-16.461-47.571 47.463 16.449 16.412c4.675 4.664 5.695 11.864 2.495 17.641-5.732 10.349-10.299 21.337-13.572 32.659-1.831 6.328-7.624 10.685-14.213 10.685h-23.302v67.086h23.302c6.589 0 12.382 4.356 14.213 10.686 3.273 11.319 7.84 22.308 13.572 32.659 3.2 5.778 2.18 12.976-2.495 17.641l-16.449 16.412 47.571 47.463 16.499-16.461c4.658-4.649 11.834-5.663 17.592-2.482 10.368 5.715 21.386 10.273 32.751 13.546 6.335 1.825 10.699 7.622 10.699 14.217v23.215h67.312v-23.215c0-6.594 4.363-12.392 10.699-14.217 11.364-3.272 22.384-7.831 32.751-13.546 5.765-3.18 12.935-2.17 17.592 2.482l16.499 16.461 47.571-47.463-16.45-16.412c-4.675-4.665-5.695-11.866-2.495-17.641 5.729-10.342 10.296-21.331 13.572-32.66 1.833-6.329 7.624-10.685 14.213-10.685h23.302v-67.086z" />
<glyph unicode="&#xe962;" d="M796.488 850.836c-19.432 0-38.704-4.815-55.735-13.927-7.204-3.852-9.923-12.818-6.068-20.022 3.855-7.203 12.814-9.926 20.023-6.067 12.754 6.82 27.202 10.427 41.781 10.427 48.814 0 88.527-39.606 88.527-88.288 0-48.683-39.713-88.288-88.527-88.288s-88.526 39.605-88.526 88.288c0 13.842 3.117 27.087 9.262 39.372 3.658 7.307 0.699 16.195-6.61 19.85-7.31 3.653-16.195 0.699-19.85-6.61-8.224-16.433-12.392-34.134-12.392-52.614 0-64.997 52.986-117.879 118.115-117.879 65.131 0 118.116 52.882 118.116 117.879s-52.986 117.879-118.116 117.879z" />
<glyph unicode="&#xe963;" d="M362.816 510.363c-116.702 0-211.648-94.929-211.648-211.613 0-28.561 5.598-56.274 16.639-82.373 3.181-7.524 11.863-11.044 19.389-7.861 7.526 3.181 11.044 11.864 7.861 19.389-9.491 22.433-14.302 46.267-14.302 70.845 0 100.369 81.672 182.024 182.060 182.024s182.059-81.658 182.059-182.024-81.672-182.022-182.059-182.022c-53.809 0-104.577 23.621-139.285 64.802-5.266 6.248-14.598 7.045-20.848 1.777-6.246-5.264-7.043-14.597-1.777-20.845 40.344-47.868 99.359-75.323 161.911-75.323 116.705 0 211.65 94.929 211.65 211.61 0 116.684-94.946 211.613-211.65 211.613z" />
<glyph unicode="&#xe964;" d="M362.814 417.868c12.144 0 24.116-1.817 35.585-5.399 7.802-2.438 16.096 1.912 18.533 9.711s-1.912 16.096-9.708 18.534c-14.329 4.476-29.27 6.744-44.408 6.744-82.011 0-148.73-66.709-148.73-148.709 0-81.994 66.721-148.706 148.73-148.706 82.011 0 148.732 66.709 148.732 148.706 0 38.627-14.743 75.229-41.511 103.065-5.664 5.884-15.032 6.071-20.918 0.407-5.89-5.664-6.072-15.030-0.408-20.918 21.442-22.295 33.251-51.611 33.251-82.554 0-65.682-53.449-119.118-119.145-119.118s-119.14 53.436-119.14 119.118 53.442 119.118 119.137 119.118z" />
<glyph unicode="&#xe965;" d="M1002.193 372.116h-12.092c-2.539 17.94-9.626 34.439-20.054 48.289l8.583 8.581c5.779 5.778 5.779 15.145 0.001 20.92s-15.145 5.781-20.92 0.003l-8.585-8.585c-13.852 10.427-30.355 17.515-48.302 20.054v12.087c0 8.172-6.622 14.795-14.795 14.795s-14.795-6.622-14.795-14.795v-12.087c-17.944-2.539-34.448-9.627-48.301-20.054l-8.586 8.585c-5.782 5.779-15.15 5.778-20.922-0.003-5.778-5.779-5.778-15.145 0.001-20.92l8.585-8.583c-10.427-13.849-17.515-30.348-20.054-48.287h-12.093c-8.174 0-14.795-6.622-14.795-14.795s6.621-14.795 14.795-14.795h12.093c2.539-17.941 9.627-34.437 20.054-48.288l-8.582-8.581c-5.778-5.775-5.781-15.144-0.003-20.922 2.888-2.89 6.676-4.333 10.463-4.333s7.571 1.443 10.46 4.332l8.588 8.585c13.851-10.428 30.354-17.515 48.301-20.054v-12.087c0-8.174 6.622-14.795 14.795-14.795s14.795 6.621 14.795 14.795v12.087c17.945 2.539 34.447 9.624 48.299 20.052l8.585-8.585c2.89-2.888 6.676-4.333 10.46-4.333 3.787 0 7.575 1.445 10.463 4.334 5.778 5.779 5.778 15.145-0.001 20.922l-8.583 8.581c10.427 13.849 17.515 30.347 20.054 48.287h12.092c8.172 0 14.795 6.622 14.795 14.795s-6.628 14.798-14.799 14.798zM886.029 281.817c-41.642 0-75.521 33.872-75.521 75.504s33.879 75.505 75.521 75.505 75.521-33.872 75.521-75.505c0-41.632-33.879-75.504-75.521-75.504z" />
<glyph unicode="&#xe966;" d="M886.029 406.346c-27.035 0-49.030-21.991-49.030-49.024 0-27.031 21.995-49.024 49.030-49.024s49.029 21.991 49.029 49.024c0.003 27.032-21.995 49.024-49.029 49.024zM886.029 337.889c-10.721 0-19.441 8.717-19.441 19.434s8.721 19.436 19.441 19.436c10.718 0 19.439-8.719 19.439-19.436s-8.718-19.434-19.439-19.434z" />
<glyph unicode="&#xe967;" d="M217.427 812.712h631.233c15.494 0 28.055-12.561 28.055-28.055v-406.795c0-15.494-12.561-28.055-28.055-28.055h-631.233c-15.494 0-28.055 12.561-28.055 28.055v406.795c0 15.494 12.561 28.055 28.055 28.055z" />
<glyph unicode="&#xe968;" d="M946.288 496.598l-26.155 104.618c7.151 1.518 12.517 7.862 12.517 15.462v16.868c0 36.623-29.797 66.417-66.418 66.417h-119.129v34.794c0 18.021-14.66 32.682-32.682 32.682h-607.249c-18.022 0-32.682-14.661-32.682-32.682v-286.758c0-8.732 7.080-15.814 15.814-15.814 8.733 0 15.814 7.080 15.814 15.814v286.758c0 0.582 0.471 1.053 1.053 1.053h607.248c0.582 0 1.053-0.471 1.053-1.053v-286.762c0-8.732 7.080-15.813 15.814-15.813 8.732 0 15.814 7.080 15.814 15.813v17.927h186.546c0.017 0 0.028-0.003 0.042-0.003s0.029 0.001 0.043 0.001c22.954-0.015 42.447-15.082 49.141-35.844h-49.173c-8.732 0-15.814-7.080-15.814-15.814v-33.734c0-27.323 22.228-49.55 49.55-49.55h17.923v-69.58h-41.35c-13.583 39.222-50.868 67.473-94.648 67.473-43.782 0-81.069-28.251-94.65-67.473h-7.614v119.132c0 8.732-7.080 15.814-15.814 15.814-8.732 0-15.814-7.080-15.814-15.814v-119.128h-328.099c-13.583 39.222-50.868 67.473-94.648 67.473-43.782 0-81.069-28.251-94.65-67.473h-90.899c-0.582 0-1.053 0.471-1.053 1.053v34.791h68.526c8.733 0 15.814 7.080 15.814 15.814s-7.080 15.814-15.814 15.814h-151.811c-8.733 0-15.814-7.080-15.814-15.814s7.080-15.814 15.814-15.814h51.659v-34.791c0-18.021 14.66-32.682 32.682-32.682h85.421c-0.004-0.351-0.027-0.7-0.027-1.053 0-55.224 44.93-100.153 100.153-100.153s100.153 44.928 100.153 100.153c0 0.355-0.024 0.703-0.028 1.053h356.39c-0.004-0.351-0.027-0.7-0.027-1.053 0-55.224 44.93-100.153 100.153-100.153s100.153 44.928 100.153 100.153c0 0.355-0.024 0.703-0.028 1.053h51.688c8.733 0 15.814 7.080 15.814 15.814v168.679c0.001 41.646-30.726 76.247-70.699 82.332zM747.102 668.337h119.129c19.184 0 34.791-15.607 34.791-34.791v-1.053h-153.92v35.844zM747.102 497.549v103.317h140.518l25.83-103.317h-166.348zM292.72 160.189c-37.786 0-68.527 30.738-68.527 68.525s30.741 68.527 68.527 68.527c37.784 0 68.525-30.738 68.525-68.527 0-37.787-30.741-68.525-68.525-68.525zM849.365 160.189c-37.786 0-68.527 30.738-68.527 68.525s30.741 68.527 68.527 68.527c37.784 0 68.525-30.738 68.525-68.527 0-37.787-30.741-68.525-68.525-68.525zM985.363 362.605h-17.923c-9.882 0-17.923 8.041-17.923 17.923v17.923h35.844v-35.846h0.001z" />
<glyph unicode="&#xe969;" d="M292.72 261.398c-18.021 0-32.682-14.661-32.682-32.682s14.661-32.682 32.682-32.682c18.022 0 32.682 14.66 32.682 32.682 0 18.021-14.66 32.682-32.682 32.682z" />
<glyph unicode="&#xe96a;" d="M849.363 261.398c-18.021 0-32.681-14.661-32.681-32.682s14.66-32.682 32.681-32.682c18.022 0 32.682 14.66 32.682 32.682 0 18.021-14.66 32.682-32.682 32.682z" />
<glyph unicode="&#xe96b;" d="M663.816 328.87h-236.153c-8.732 0-15.813-7.080-15.813-15.814s7.080-15.814 15.813-15.814h236.153c8.732 0 15.814 7.080 15.814 15.814s-7.080 15.814-15.814 15.814z" />
<glyph unicode="&#xe96c;" d="M258.985 396.343h-202.417c-8.733 0-15.814-7.080-15.814-15.814s7.080-15.814 15.814-15.814h202.417c8.732 0 15.813 7.080 15.813 15.814s-7.081 15.814-15.813 15.814z" />
<glyph unicode="&#xe96d;" d="M556.921 610.997c-6.173 6.173-16.189 6.173-22.362-0.003l-140.632-140.629-73.157 73.158c-6.176 6.176-16.19 6.176-22.364 0-6.176-6.176-6.176-16.188 0-22.364l84.341-84.341c3.086-3.089 7.134-4.63 11.18-4.63s8.095 1.542 11.181 4.63l151.812 151.812c6.176 6.179 6.176 16.19 0.001 22.367z" />
<glyph unicode="&#xe96e;" glyph-name="arrow-left" d="M390.095 448c0 67.326 54.579 121.905 121.905 121.905s121.905-54.579 121.905-121.905c0-67.326-54.579-121.905-121.905-121.905s-121.905 54.579-121.905 121.905z" />
<glyph unicode="&#xe96f;" glyph-name="Slider_right_L" d="M633.905 448c0-67.326-54.579-121.905-121.905-121.905s-121.905 54.579-121.905 121.905c0 67.326 54.579 121.905 121.905 121.905s121.905-54.579 121.905-121.905z" />
<glyph unicode="&#xe970;" d="M932.825 700.493h-561.096c-38.735 0-70.137-31.402-70.137-70.137v-247.745c0-10.542 2.337-20.996 7.089-30.406 24.69-48.867 44.885-74.673 84.26-102.883 11.048-7.917 24.464-11.734 38.056-11.734h451.67c14.786 0 29.313 4.538 40.922 13.694 38.716 30.532 58.437 56.783 75.667 104.587 2.546 7.067 3.706 14.555 3.706 22.066v252.42c0 38.735-31.4 70.137-70.137 70.137z" />
<glyph unicode="&#xe971;" d="M898.646 585.316h-45.381v7.787c0 29.901-24.326 54.227-54.227 54.227h-557.418c-8.171 0-14.795-6.625-14.795-14.795s6.624-14.795 14.795-14.795h557.418c13.586 0 24.638-11.052 24.638-24.638v-249.298c0-87.694-47.487-167.947-124.14-210.359h-479.984c-76.63 42.409-124.102 122.663-124.102 210.359v249.298c0 13.586 11.052 24.638 24.638 24.638h62.354c8.171 0 14.795 6.624 14.795 14.795s-6.624 14.795-14.795 14.795h-62.354c-29.901 0-54.227-24.326-54.227-54.227v-249.298c0-82.784 37.673-159.658 100.783-210.359h-97.252c-34.392 0-62.374-27.98-62.374-62.373 0-16.645 6.48-32.308 18.272-44.126 11.794-11.768 27.457-18.248 44.102-18.248h17.459c10.409-35.398 43.226-60.743 81.098-60.743h583.217c37.873 0 70.688 25.346 81.098 60.743h17.449c34.405 0 62.394 27.982 62.394 62.374 0 16.66-6.492 32.326-18.281 44.113-11.775 11.775-27.44 18.259-44.113 18.259h-97.26c13.315 10.696 25.52 22.534 36.453 35.369h2.452c124.415 0 225.632 101.219 225.632 225.633v72.526c0 65.254-53.088 118.342-118.344 118.342zM872.905 94.264c6.2-6.2 9.614-14.436 9.614-23.191 0-18.077-14.716-32.785-32.804-32.785h-156.132c-8.171 0-14.795-6.624-14.795-14.795s6.624-14.795 14.795-14.795h107.099c-8.958-18.554-27.983-31.153-49.515-31.153h-583.218c-21.532 0-40.555 12.601-49.515 31.153h515.969c8.171 0 14.795 6.624 14.795 14.795s-6.624 14.795-14.795 14.795h-565.012c-8.754 0-16.996 3.41-23.178 9.581-6.194 6.207-9.607 14.45-9.607 23.204 0 18.077 14.708 32.785 32.785 32.785h780.322c8.771 0 17.004-3.407 23.193-9.593zM853.264 482.481h45.381c8.551 0 15.506-6.958 15.506-15.509v-72.527c0-47.163-26.698-89.085-67.409-109.589 4.264 19.112 6.519 38.85 6.519 58.946v138.679h0.003zM987.401 394.448c0-101.321-77.263-184.936-175.967-195.022 9.842 15.541 18.076 32.078 24.569 49.362 63.822 19.495 107.74 78.273 107.74 145.659v72.526c0 24.866-20.23 45.098-45.097 45.098h-45.383v43.657h45.381c48.939 0 88.753-39.815 88.753-88.753v-72.529h0.003z" />
<glyph unicode="&#xe972;" d="M459.559 814.41c20.528 0 37.227-16.701 37.227-37.227 0-20.528-16.7-37.227-37.227-37.227-8.17 0-14.793-6.624-14.793-14.795s6.624-14.795 14.793-14.795c36.843 0 66.817 29.974 66.817 66.817s-29.974 66.816-66.817 66.816c-20.526 0-37.226 16.7-37.226 37.227s16.7 37.227 37.226 37.227c8.171 0 14.795 6.624 14.795 14.794s-6.624 14.795-14.795 14.795c-36.842 0-66.815-29.974-66.815-66.816s29.971-66.815 66.815-66.815z" />
<glyph unicode="&#xe973;" d="M611.966 814.41c20.528 0 37.227-16.701 37.227-37.227 0-20.528-16.7-37.227-37.227-37.227-8.17 0-14.795-6.624-14.795-14.795s6.625-14.795 14.795-14.795c36.843 0 66.817 29.974 66.817 66.817s-29.974 66.816-66.817 66.816c-20.526 0-37.226 16.7-37.226 37.227s16.7 37.227 37.226 37.227c8.171 0 14.795 6.624 14.795 14.794s-6.624 14.795-14.795 14.795c-36.842 0-66.815-29.974-66.815-66.816s29.974-66.815 66.815-66.815z" />
<glyph unicode="&#xe974;" d="M307.148 814.41c20.528 0 37.227-16.701 37.227-37.227 0-20.528-16.7-37.227-37.227-37.227-8.171 0-14.795-6.624-14.795-14.795s6.624-14.795 14.795-14.795c36.843 0 66.817 29.974 66.817 66.817s-29.974 66.816-66.817 66.816c-20.526 0-37.227 16.7-37.227 37.227s16.701 37.227 37.227 37.227c8.171 0 14.795 6.624 14.795 14.794s-6.624 14.795-14.795 14.795c-36.842 0-66.815-29.974-66.815-66.816s29.974-66.815 66.815-66.815z" />
<glyph unicode="&#xe975;" glyph-name="telegram" d="M1009.501 803.689l-152.769-720.452c-11.535-50.839-41.581-63.495-84.286-39.558l-232.786 171.534-112.307-108.041c-12.439-12.437-22.816-22.814-46.788-22.814l16.742 237.053 431.403 389.821c18.767 16.705-4.086 25.998-29.144 9.257l-533.332-335.838-229.605 71.883c-49.935 15.584-50.838 49.935 10.414 73.907l898.062 345.999c41.581 15.584 77.956-9.256 64.397-72.786v0.036z" />
<glyph unicode="&#xe976;" glyph-name="twitter" d="M1012.624 745.488c-35.325-15.238-73.765-26.205-113.362-30.476 41.11 24.423 71.895 63.007 86.58 108.514-38.577-22.948-80.837-39.040-124.907-47.561-18.419 19.691-40.695 35.378-65.442 46.083s-51.434 16.199-78.396 16.139c-109.090 0-196.826-88.427-196.826-196.941 0-15.238 1.848-30.476 4.849-45.137-163.348 8.543-309.032 86.58-405.886 206.061-17.648-30.143-26.896-64.465-26.782-99.394 0-68.34 34.747-128.6 87.735-164.040-31.227 1.229-61.721 9.813-89.005 25.051v-2.425c0-95.7 67.648-175.006 157.806-193.247-16.929-4.397-34.343-6.646-51.832-6.695-12.815 0-24.935 1.269-37.172 3 24.936-78.037 97.547-134.718 184.012-136.566-67.647-52.986-152.381-84.155-244.387-84.155-16.508 0-31.746 0.577-47.561 2.423 87.273-55.988 190.822-88.311 302.338-88.311 362.020 0 560.115 299.913 560.115 560.23 0 8.543 0 17.086-0.577 25.628 38.325 28.053 71.919 62.8 98.701 101.819z" />
<glyph unicode="&#xe977;" glyph-name="vk" d="M999.738 704.821c7.045 23.17 0 40.229-33.737 40.229h-111.395c-28.347 0-41.418-14.725-48.504-30.978 0 0-56.652-135.626-136.899-223.723-25.971-25.546-37.768-33.651-51.942-33.651-7.086 0-17.737 8.105-17.737 31.318v216.805c0 27.838-7.809 40.229-31.404 40.229h-175.176c-17.696 0-28.347-12.9-28.347-25.165 0-26.353 40.145-32.464 44.26-106.642v-161.172c0-35.35-6.493-41.757-20.665-41.757-37.769 0-129.643 136.263-184.173 292.172-10.567 30.342-21.26 42.563-49.735 42.563h-111.479c-31.827 0-38.192-14.725-38.192-30.978 0-28.941 37.768-172.714 175.897-362.871 92.087-129.854 221.728-200.256 339.828-200.256 70.825 0 79.568 15.617 79.568 42.564v98.155c0 31.275 6.704 37.513 29.154 37.513 16.55 0 44.854-8.148 110.97-70.74 75.537-74.221 87.97-107.491 130.491-107.491h111.395c31.827 0 47.783 15.617 38.617 46.51-10.1 30.724-46.171 75.324-93.996 128.242-25.971 30.129-64.927 62.593-76.767 78.845-16.507 20.837-11.797 30.131 0 48.675 0 0 135.795 187.822 149.926 251.603h0.043z" />
<glyph unicode="&#xe978;" glyph-name="youtube" d="M961.427 671.541c-5.531 19.728-16.303 37.589-31.173 51.683-15.289 14.528-34.030 24.92-54.45 30.196-76.427 20.144-382.62 20.144-382.62 20.144-127.647 1.452-255.265-4.935-382.13-19.127-20.421-5.665-39.126-16.29-54.45-30.928-15.057-14.488-25.964-32.353-31.661-51.928-13.686-73.73-20.336-148.593-19.859-223.582-0.488-74.92 6.145-149.759 19.859-223.579 5.575-19.495 16.441-37.279 31.539-51.643 15.098-14.366 33.899-24.742 54.573-30.237 77.443-20.104 382.13-20.104 382.13-20.104 127.812-1.454 255.59 4.934 382.62 19.127 20.42 5.276 39.16 15.667 54.45 30.196 14.865 14.091 25.625 31.956 31.133 51.683 14.042 73.701 20.871 148.596 20.388 223.621 1.056 75.343-5.763 150.59-20.347 224.517v-0.041zM395.84 308.659v278.642l254.754-139.341-254.754-139.301z" />
<glyph unicode="&#xe979;" glyph-name="location" horiz-adv-x="663" d="M321.85 854.588c-10.41 0.075-18.899-8.301-18.974-18.692s8.282-18.88 18.692-18.955c10.391-0.075 18.88 8.282 18.955 18.673s-8.282 18.88-18.673 18.974zM320.99 741.643c-72.679 0.516-132.201-58.117-132.751-130.774-0.548-72.653 58.118-132.204 130.775-132.752 0.337-0.002 0.672-0.004 1.009-0.004 72.194 0 131.197 58.459 131.742 130.779 0.548 72.65-58.116 132.204-130.775 132.751zM320.019 515.759c-0.237 0-0.486 0.002-0.723 0.004-51.899 0.392-93.804 42.928-93.412 94.824 0.39 51.661 42.532 93.416 94.101 93.416 0.237 0 0.486-0.002 0.723-0.004 51.899-0.392 93.804-42.929 93.412-94.824-0.392-51.661-42.532-93.416-94.101-93.416zM402.126 840.291c-9.792 3.475-20.558-1.655-24.032-11.454s1.656-20.557 11.454-24.032c82.913-29.385 138.169-108.352 137.506-196.497-0.077-10.394 8.286-18.886 18.683-18.964 0.047 0 0.096 0 0.145 0 10.327 0 18.741 8.335 18.82 18.682 0.783 104.183-64.552 197.524-162.575 232.266zM435.504 221.286c125.201 161.156 203.442 245.194 204.502 386.19 1.325 177.399-142.643 322.406-320.028 322.406-175.315 0-318.634-141.982-319.967-317.606-1.077-144.819 78.62-228.742 204.686-390.966-125.412-18.739-204.686-65.831-204.686-123.428 0-38.587 35.663-73.204 100.422-97.491 58.942-22.1 136.923-34.274 219.575-34.274s160.632 12.174 219.575 34.274c64.758 24.287 100.423 58.91 100.423 97.491 0 57.567-79.202 104.647-204.502 123.404zM37.656 611.992c1.175 154.973 127.622 280.244 282.325 280.244 156.535 0 283.546-127.978 282.378-284.479-1.001-133.899-83.979-216.416-216.454-389.109-23.629-30.786-45.329-59.898-65.869-88.371-20.48 28.491-41.747 57.079-65.73 88.383-137.951 179.922-217.67 256.202-216.65 393.332zM320.008 3.765c-161.602 0-282.352 49.688-282.352 94.118 0 32.949 72.185 74.571 193.555 88.986 26.829-35.208 50.351-67.186 73.421-99.846 3.524-4.994 9.25-7.963 15.358-7.963 0.005 0 0.011 0 0.017 0 6.102 0 11.827 2.958 15.356 7.939 22.851 32.232 47.017 65.006 73.617 99.846 121.257-14.426 193.378-56.037 193.378-88.968 0-44.424-120.749-94.112-282.351-94.112z" />
<glyph unicode="&#xe97a;" glyph-name="wallet" horiz-adv-x="964" d="M899.512 719.461v146.171c0 26.614-21.576 48.188-48.188 48.188h-674.633c-62.069-0.071-112.368-50.37-112.439-112.439v-295.891c-38.551-13.14-64.251-32.126-64.251-57.489v-385.506c0-55.194 120.743-80.312 232.909-80.312s232.91 25.118 232.91 80.312v16.065h417.634c44.333 0.054 80.258 35.979 80.312 80.312v481.883c-0.048 38.151-26.883 71.022-64.253 78.707zM176.69 881.694h674.633c8.873 0 16.065-7.191 16.065-16.062v-48.188h-722.824c-8.871 0-16.063-7.191-16.063-16.063s7.191-16.063 16.063-16.063h722.824v-64.251h-690.698c-44.356 0-80.314 35.957-80.314 80.314s35.957 80.314 80.314 80.314zM232.909 496.189c132.469 0 200.784-33.732 200.784-48.188s-68.315-48.188-200.784-48.188c-132.469 0-200.784 33.732-200.784 48.188s68.315 48.188 200.784 48.188zM433.694 351.624c0-14.456-68.315-48.188-200.784-48.188s-200.784 33.732-200.784 48.188v53.008c43.369-25.171 124.053-36.945 200.784-36.945s157.415 11.774 200.784 36.945v-53.008zM232.909 271.312c76.732 0 157.415 11.77 200.784 36.942v-53.007c0-14.456-68.315-48.188-200.784-48.188s-200.784 33.732-200.784 48.188v53.007c43.369-25.172 124.053-36.942 200.784-36.942zM32.125 211.799c43.369-25.094 124.053-36.864 200.784-36.864s157.415 11.77 200.784 36.942v-53.007c0-14.456-68.315-48.188-200.784-48.188s-200.784 33.732-200.784 48.188v52.929zM433.694 62.494c0-14.456-68.315-48.188-200.784-48.188s-200.784 33.732-200.784 48.188v53.007c43.369-25.172 124.053-36.942 200.784-36.942s157.415 11.77 200.784 36.942v-53.007zM883.453 110.682h-417.634v337.318c0 55.191-120.744 80.314-232.91 80.314-45.876 0.345-91.654-4.281-136.533-13.798v208.318c21.1-21.673 50.066-33.896 80.314-33.892h706.763c26.612 0 48.188-21.575 48.188-48.188v-160.628h-80.318c-44.357 0-80.312-35.957-80.312-80.314s35.954-80.312 80.312-80.312h80.318v-160.629c0-12.782-5.078-25.034-14.119-34.075-9.035-9.035-21.293-14.113-34.069-14.113zM931.641 351.624h-80.318c-26.612 0-48.188 21.575-48.188 48.189s21.576 48.188 48.188 48.188h80.318v-96.377zM851.33 383.748c8.873 0 16.065 7.192 16.065 16.064s-7.192 16.063-16.065 16.063c-8.873 0-16.065-7.191-16.065-16.063s7.192-16.064 16.065-16.064zM578.255 656.816h-32.126c-8.871 0-16.062-7.191-16.062-16.062s7.191-16.063 16.062-16.063h32.126c8.871 0 16.063 7.191 16.063 16.063s-7.191 16.062-16.063 16.062zM899.518 640.754c0 8.871-7.192 16.062-16.065 16.062h-240.941c-8.873 0-16.065-7.191-16.065-16.062s7.192-16.063 16.065-16.063h240.941c8.873 0 16.065 7.191 16.065 16.063z" />
</font>
</defs>
</svg>
